<svg xmlns="http://www.w3.org/2000/svg" viewBox="0 0 21.72 21.72"><defs><style>.cls-1{fill:#fff;}</style></defs><title>insta</title><g id="Слой_2" data-name="Слой 2"><g id="DESIGNED_BY_FREEPIK" data-name="DESIGNED BY FREEPIK"><path class="cls-1" d="M15.73,0H6A6,6,0,0,0,0,6v9.74a6,6,0,0,0,6,6h9.74a6,6,0,0,0,6-6V6a6,6,0,0,0-6-6Zm4.06,15.73a4.06,4.06,0,0,1-4.06,4.06H6a4.06,4.06,0,0,1-4.06-4.06V6A4.06,4.06,0,0,1,6,1.93h9.74A4.06,4.06,0,0,1,19.79,6Z"/><path class="cls-1" d="M10.86,5.26a5.6,5.6,0,1,0,5.6,5.6,5.6,5.6,0,0,0-5.6-5.6Zm0,9.27a3.67,3.67,0,1,1,3.67-3.67,3.68,3.68,0,0,1-3.67,3.67Z"/><path class="cls-1" d="M16.69,3.63a1.43,1.43,0,0,0-1,.41,1.45,1.45,0,0,0-.41,1A1.41,1.41,0,1,0,18.1,5a1.45,1.45,0,0,0-.41-1,1.43,1.43,0,0,0-1-.41Z"/></g></g></svg>