<?xml version="1.0" encoding="UTF-8"?>
<!DOCTYPE svg PUBLIC "-//W3C//DTD SVG 1.1//EN" "http://www.w3.org/Graphics/SVG/1.1/DTD/svg11.dtd">
<!-- Creator: CorelDRAW X8 -->
<svg xmlns="http://www.w3.org/2000/svg" xml:space="preserve" width="38.9992mm" height="21.2557mm" version="1.1" style="shape-rendering:geometricPrecision; text-rendering:geometricPrecision; image-rendering:optimizeQuality; fill-rule:evenodd; clip-rule:evenodd"
viewBox="0 0 2103 1146"
 xmlns:xlink="http://www.w3.org/1999/xlink">
 <defs>
  <style type="text/css">
   <![CDATA[
    .fil0 {fill:#FEFEFE}
   ]]>
  </style>
 </defs>
 <g id="Слой_x0020_1">
  <metadata id="CorelCorpID_0Corel-Layer"/>
  <g id="_378695445472">
   <path class="fil0" d="M959 15l0 241 903 0 0 -236c0,-12 -8,-20 -20,-20l-863 0c-9,0 -20,7 -20,15z"/>
   <polygon class="fil0" points="607,617 873,617 873,310 607,310 "/>
   <polygon class="fil0" points="1257,615 1520,615 1520,310 1257,310 "/>
   <path class="fil0" d="M607 20l0 236 266 0 0 -236c0,-12 -8,-20 -20,-20l-231 0c-8,0 -15,11 -15,20z"/>
   <path class="fil0" d="M389 733l196 0 0 103 -123 0 0 -20 104 0 0 -63 -116 0c-104,0 -92,150 -7,150l228 0 0 -175c0,-32 -20,-62 -51,-62l-231 0 0 67z"/>
   <path class="fil0" d="M708 725l0 118c0,32 21,60 52,60l234 0 0 -67 -200 0 0 -103 121 0c0,22 -1,13 2,20l-103 0 0 63 180 0 0 -88c0,-32 -21,-62 -52,-62l-182 0c-30,0 -52,26 -52,59z"/>
   <path class="fil0" d="M607 1131c0,6 9,15 15,15l231 0c12,0 20,-8 20,-20l0 -192 -266 0 0 197z"/>
   <path class="fil0" d="M1254 1126c0,12 8,20 20,20l226 0c12,0 20,-8 20,-20l0 -192 -266 0 0 192z"/>
   <path class="fil0" d="M1025 738c0,46 20,78 67,78l138 0c0,23 -1,14 2,20l-207 0 0 67 232 0c15,0 33,-10 41,-18 34,-37 24,-132 -56,-132l-130 0 0 -20 189 0 0 -67 -209 0c-34,0 -67,33 -67,72z"/>
   <path class="fil0" d="M0 671l0 232 86 0 0 -170 167 0 0 170 86 0 0 -182c0,-32 -22,-57 -51,-57l-281 0c-5,0 -7,2 -7,7z"/>
   <path class="fil0" d="M1842 846c0,28 19,57 47,57l167 0c28,0 47,-26 47,-55l0 -98 -77 0 0 86 -108 0 0 -86 -76 0 0 96z"/>
   <path class="fil0" d="M1375 843c0,32 21,60 51,60l136 0 0 -67 -101 0 0 -86 -86 0 0 93z"/>
   <path class="fil0" d="M1842 718l0 10 261 0c0,-68 -32,-69 -89,-69 -37,0 -21,5 -57,0 -25,-2 -82,-2 -99,14 -9,9 -16,27 -16,45z"/>
   <polygon class="fil0" points="1375,666 1353,666 1353,728 1562,728 1562,666 1461,666 1461,625 1375,625 "/>
   <polygon class="fil0" points="1596,903 1682,903 1682,750 1596,750 "/>
   <polygon class="fil0" points="128,903 214,903 214,753 128,753 "/>
   <path class="fil0" d="M1596 728l211 0c0,-21 -2,-33 -14,-47 -6,-8 -23,-17 -37,-17l-160 0 0 64z"/>
  </g>
 </g>
</svg>
