<svg xmlns="http://www.w3.org/2000/svg" viewBox="0 0 24.38 21.8"><defs><style>.cls-1{fill:#fff;}</style></defs><title>telega</title><g id="Слой_2" data-name="Слой 2"><g id="Слой_1-2" data-name="Слой 1"><path class="cls-1" d="M19.62,21.8a1,1,0,0,1-.54-.16L13,17.48,9.67,19.85a1,1,0,0,1-.89.12,1,1,0,0,1-.61-.66L6.52,13.05.62,10.8A1,1,0,0,1,0,9.9,1,1,0,0,1,.61,9L23,.08A.94.94,0,0,1,23.35,0h.12a1,1,0,0,1,.62.28l.05,0a.93.93,0,0,1,.23.56.43.43,0,0,1,0,.16s0,.07,0,.11L20.57,21a1,1,0,0,1-.58.71.94.94,0,0,1-.37.07Zm-6.13-6.29L19,19.22,21.9,3.76,11.26,14l2.21,1.5ZM9,14.69l.73,2.77,1.57-1.13-2.06-1.4A.91.91,0,0,1,9,14.69ZM3.62,9.88l4.05,1.55a1,1,0,0,1,.59.65L8.77,14a1,1,0,0,1,.29-.6L19.2,3.68Z"/></g></g></svg>