<svg xmlns="http://www.w3.org/2000/svg" viewBox="0 0 21.02 22.09"><defs><style>.cls-1{fill:#fff;stroke:#fff;stroke-miterlimit:10;stroke-width:0.25px;}</style></defs><title>viber</title><g id="Слой_2" data-name="Слой 2"><g id="Слой_1-2" data-name="Слой 1"><path class="cls-1" d="M18.79,2.57C17.07.88,14.27.06,10.49.13s-6.36.74-8,2.11S.12,5.48.12,8.3v2.87c0,3.33,1.79,7,5.2,7.55a.72.72,0,1,0,.23-1.43c-2.59-.42-4-3.46-4-6.12V8.3c0-4.05,1.5-6.58,9-6.73,3.38-.06,5.82.62,7.26,2a6.25,6.25,0,0,1,1.67,4.7v2.87c0,4.36-2,6.28-7,6.85H8.92a.71.71,0,0,0-.51.21L5.9,20.74a.72.72,0,0,0,0,1,.74.74,0,0,0,1,0l2.29-2.3H12.6c2.87-.32,4.83-1.07,6.18-2.35s2.11-3.3,2.11-5.94V8.3a7.65,7.65,0,0,0-2.1-5.73Z"/><path class="cls-1" d="M11,4.84h0a4.34,4.34,0,0,1,4.35,4.35.73.73,0,1,0,1.45,0A5.79,5.79,0,0,0,11,3.4h0a.72.72,0,1,0,0,1.44Z"/><path class="cls-1" d="M11,7.38a1.82,1.82,0,0,1,1.82,1.81.72.72,0,1,0,1.44,0A3.27,3.27,0,0,0,11,5.93a.73.73,0,0,0,0,1.45Z"/><path class="cls-1" d="M7.72,8.61a.73.73,0,0,0,.82,1.2,1.61,1.61,0,0,0,.82-1.42,4,4,0,0,0-.84-1.71A3.71,3.71,0,0,0,7.13,5.35,1.63,1.63,0,0,0,6,5.34,2.6,2.6,0,0,0,4.41,6.71a2.54,2.54,0,0,0,0,2,13.38,13.38,0,0,0,2.89,4.43,13.7,13.7,0,0,0,4.43,2.89,2.86,2.86,0,0,0,1.08.22,2.39,2.39,0,0,0,1-.2,2.69,2.69,0,0,0,1.37-1.63,1.63,1.63,0,0,0,0-1.09A3.72,3.72,0,0,0,13.82,12a4,4,0,0,0-1.71-.84,1.6,1.6,0,0,0-1.42.82.72.72,0,0,0,.19,1,.71.71,0,0,0,1-.19l.15-.19a5.83,5.83,0,0,1,1.77,1.31s0,0,0,.11a1.25,1.25,0,0,1-.6.77,1.16,1.16,0,0,1-.9,0,12.16,12.16,0,0,1-3.95-2.57,11.94,11.94,0,0,1-2.57-4,1.13,1.13,0,0,1,0-.89,1.27,1.27,0,0,1,.78-.6c.06,0,.09,0,.11,0a6,6,0,0,1,1.3,1.77.86.86,0,0,1-.19.14Z"/></g></g></svg>