<?xml version="1.0" encoding="UTF-8"?>
<!DOCTYPE svg PUBLIC "-//W3C//DTD SVG 1.1//EN" "http://www.w3.org/Graphics/SVG/1.1/DTD/svg11.dtd">
<!-- Creator: CorelDRAW X8 -->
<svg xmlns="http://www.w3.org/2000/svg" xml:space="preserve" width="7.76mm" height="7.76mm" version="1.1" style="shape-rendering:geometricPrecision; text-rendering:geometricPrecision; image-rendering:optimizeQuality; fill-rule:evenodd; clip-rule:evenodd"
viewBox="0 0 83 83"
 xmlns:xlink="http://www.w3.org/1999/xlink">
 <defs>
  <style type="text/css">
   <![CDATA[
    .fil1 {fill:#FEFEFE}
    .fil0 {fill:#FEFEFE;fill-rule:nonzero}
   ]]>
  </style>
 </defs>
 <g id="Слой_x0020_1">
  <metadata id="CorelCorpID_0Corel-Layer"/>
  <g id="_377981861808">
   <path class="fil0" d="M65 53c0,0 0,0 0,0 -1,-2 -3,-4 -5,-6l0 0 0 0 0 0 0 0c-1,-1 -2,-2 -2,-2 -1,-1 -1,-2 -1,-2 1,-1 1,-2 3,-4 1,-1 1,-1 1,-2 3,-4 5,-6 4,-8l0 0c0,0 0,0 -1,0 0,0 -1,0 -1,0l-8 0c0,0 0,0 0,0 0,0 -1,0 -1,0l0 0 0 0c0,0 0,0 0,0 0,0 0,1 0,1 -1,2 -2,4 -3,6 -1,1 -1,2 -2,2 0,1 -1,2 -1,2 -1,0 -1,1 -1,1 -1,0 -1,0 -1,0 0,0 0,0 0,0 -1,0 -1,0 -1,0 0,-1 0,-1 0,-1 0,-1 0,-1 0,-2 0,0 0,0 0,-1 0,0 0,-1 0,-1 0,-1 0,-1 0,-2 0,-1 0,-1 0,-2 0,0 0,-1 0,-1 0,-1 0,-1 0,-1 0,-1 0,-1 0,-1 -1,-1 -1,-1 -1,-1 0,0 -1,0 -1,0 -1,0 -2,-1 -3,-1l-1 0 0 0c-3,0 -5,1 -6,1 0,0 0,0 -1,1 0,0 0,0 0,0 1,1 2,1 3,2l0 0c0,0 0,0 0,1 0,1 0,1 0,2 0,1 0,2 0,3 0,1 0,2 0,2 0,1 0,1 0,2 0,0 -1,0 -1,0 0,0 0,0 0,0 0,0 0,0 0,0 -1,0 -1,0 -1,0 -1,0 -1,-1 -1,-1 -1,0 -1,-1 -2,-2 0,-1 -1,-1 -1,-2l-1 -1c0,-1 0,-1 -1,-2 0,-1 0,-2 -1,-3 0,0 0,-1 0,-1l-1 0c0,0 0,0 0,0 0,0 0,0 -1,0l-7 0c0,0 -1,0 -1,0l0 0c0,0 0,1 0,1l0 0 0 0c0,0 0,0 0,0 1,3 2,5 3,8 1,2 2,4 3,5 1,1 2,3 3,4 1,1 2,2 2,2 0,1 1,1 1,1l0 1c1,0 1,1 2,1 1,1 2,1 3,2 1,0 2,1 3,1 2,1 3,1 4,1l3 0c1,0 1,-1 1,-1l0 0c1,0 1,0 1,-1 0,0 0,0 0,0 0,-1 0,-2 0,-2 0,-1 0,-1 0,-2 1,0 1,0 1,0 0,-1 0,-1 0,-1 0,0 1,0 1,0 0,0 0,0 1,1 1,0 1,1 2,1 0,1 1,1 1,2 1,1 2,1 2,2l1 0c0,0 1,0 1,1 1,0 1,0 2,0l6 0c1,0 1,0 2,-1 0,0 0,0 0,0 0,-1 0,-1 0,-1 0,-1 0,-1 0,-1z"/>
   <path class="fil1" d="M21 0l41 0c12,0 21,10 21,21l0 41c0,12 -9,21 -21,21l-41 0c-11,0 -21,-9 -21,-21l0 -41c0,-11 10,-21 21,-21zm4 7l33 0c10,0 18,8 18,18l0 33c0,10 -8,18 -18,18l-33 0c-10,0 -18,-8 -18,-18l0 -33c0,-10 8,-18 18,-18z"/>
  </g>
 </g>
</svg>
