<svg xmlns="http://www.w3.org/2000/svg" xmlns:xlink="http://www.w3.org/1999/xlink" viewBox="0 0 22.17 22"><defs><style>.cls-1{fill:none;}.cls-2{clip-path:url(#clip-path);}.cls-3{fill:#fff;}</style><clipPath id="clip-path"><rect class="cls-1" width="22.17" height="22"/></clipPath></defs><title>whatsapp</title><g id="Слой_2" data-name="Слой 2"><g id="Слой_1-2" data-name="Слой 1"><g class="cls-2"><path class="cls-3" d="M11.09,22h0a11,11,0,0,1-5-1.19L1.36,21.89a.85.85,0,0,1-.8-.23.88.88,0,0,1-.24-.8l1-4.67A10.91,10.91,0,0,1,0,11v0A10.87,10.87,0,0,1,3.26,3.22a11.11,11.11,0,0,1,15.64,0,10.9,10.9,0,0,1,1.37,13.93.87.87,0,1,1-1.43-1A9.1,9.1,0,0,0,20.44,11a9.2,9.2,0,0,0-2.77-6.55A9.35,9.35,0,0,0,1.73,11v0A9.27,9.27,0,0,0,3,15.62a.84.84,0,0,1,.09.62l-.8,3.66L6,19.05a.89.89,0,0,1,.6.09,9.58,9.58,0,0,0,4.45,1.13h0a9.3,9.3,0,0,0,4.79-1.33.87.87,0,0,1,1.19.31.85.85,0,0,1-.3,1.18A11,11,0,0,1,11.09,22ZM8.64,6.59c-.19-.42-.39-.43-.57-.44H7.58a.9.9,0,0,0-.67.32A2.82,2.82,0,0,0,6,8.57a4.88,4.88,0,0,0,1,2.62A10.29,10.29,0,0,0,11.39,15c2.14.84,2.58.68,3,.64a2.58,2.58,0,0,0,1.71-1.21,2.15,2.15,0,0,0,.15-1.2c-.06-.1-.23-.17-.49-.29s-1.49-.75-1.73-.84-.4-.12-.57.13-.66.84-.81,1-.3.19-.55.06a7.19,7.19,0,0,1-2-1.26,7.57,7.57,0,0,1-1.43-1.78.37.37,0,0,1,.11-.51c.12-.12.27-.27.4-.42a1.61,1.61,0,0,0,.25-.42.48.48,0,0,0,0-.44c-.07-.13-.55-1.38-.78-1.88"/></g></g></g></svg>