<svg xmlns="http://www.w3.org/2000/svg" xmlns:xlink="http://www.w3.org/1999/xlink" viewBox="0 0 405.26 321.43"><defs><style>.cls-1,.cls-14,.cls-16,.cls-21,.cls-22,.cls-5,.cls-6,.cls-64,.cls-67,.cls-70,.cls-9{fill:none;}.cls-2{clip-path:url(#clip-path);}.cls-3,.cls-72{opacity:0.1;}.cls-4{clip-path:url(#clip-path-3);}.cls-14,.cls-16,.cls-21,.cls-5,.cls-6,.cls-64,.cls-70,.cls-9{stroke:#fff;}.cls-5,.cls-64{stroke-linecap:round;}.cls-16,.cls-21,.cls-22,.cls-5,.cls-6,.cls-67,.cls-9{stroke-miterlimit:22.93;}.cls-5,.cls-67,.cls-9{stroke-width:2.13px;}.cls-6{stroke-width:5.67px;}.cls-17,.cls-7{fill:#161623;}.cls-10,.cls-15,.cls-17,.cls-18,.cls-24,.cls-41,.cls-59,.cls-61,.cls-62,.cls-7,.cls-71{fill-rule:evenodd;}.cls-7{opacity:0.8;}.cls-8{fill:#302c4b;}.cls-10{fill:#1e1f35;}.cls-11,.cls-24,.cls-59,.cls-72{fill:#fff;}.cls-12,.cls-62,.cls-68{fill:#807c9a;}.cls-12,.cls-31{opacity:0.2;}.cls-13,.cls-61{fill:#2d2b49;}.cls-14{stroke-miterlimit:10;stroke-width:2.93px;}.cls-15{fill:#4a4860;}.cls-16{stroke-width:1.42px;}.cls-18,.cls-69{fill:#6c6783;}.cls-19,.cls-59{opacity:0.5;}.cls-20{clip-path:url(#clip-path-4);}.cls-21{stroke-width:0.71px;}.cls-22{stroke:#1e1f35;stroke-width:1.98px;}.cls-23{clip-path:url(#clip-path-5);}.cls-25{clip-path:url(#clip-path-6);}.cls-26{clip-path:url(#clip-path-7);}.cls-27{clip-path:url(#clip-path-8);}.cls-28{clip-path:url(#clip-path-9);}.cls-29{clip-path:url(#clip-path-10);}.cls-30{clip-path:url(#clip-path-11);}.cls-32{clip-path:url(#clip-path-12);}.cls-33{clip-path:url(#clip-path-13);}.cls-34{clip-path:url(#clip-path-14);}.cls-35{clip-path:url(#clip-path-15);}.cls-36{clip-path:url(#clip-path-16);}.cls-37{clip-path:url(#clip-path-17);}.cls-38{clip-path:url(#clip-path-18);}.cls-39{clip-path:url(#clip-path-19);}.cls-40{clip-path:url(#clip-path-20);}.cls-41{fill:#272441;}.cls-42{opacity:0.05;}.cls-43{clip-path:url(#clip-path-21);}.cls-44{clip-path:url(#clip-path-22);}.cls-45{clip-path:url(#clip-path-23);}.cls-46{clip-path:url(#clip-path-24);}.cls-47{clip-path:url(#clip-path-25);}.cls-48{clip-path:url(#clip-path-26);}.cls-49{clip-path:url(#clip-path-27);}.cls-50{clip-path:url(#clip-path-28);}.cls-51{clip-path:url(#clip-path-29);}.cls-52{clip-path:url(#clip-path-30);}.cls-53{clip-path:url(#clip-path-31);}.cls-54{clip-path:url(#clip-path-32);}.cls-55{clip-path:url(#clip-path-33);}.cls-56{clip-path:url(#clip-path-34);}.cls-57{clip-path:url(#clip-path-35);}.cls-58{clip-path:url(#clip-path-36);}.cls-60{clip-path:url(#clip-path-37);}.cls-63{clip-path:url(#clip-path-38);}.cls-64,.cls-70{stroke-linejoin:round;}.cls-64{stroke-width:4.25px;stroke-dasharray:4.25 12.76;}.cls-65{clip-path:url(#clip-path-39);}.cls-66{fill:#575473;}.cls-67{stroke:#9795ae;}.cls-70{stroke-width:2.83px;}.cls-71{fill:#9692b7;}</style><clipPath id="clip-path" transform="translate(-1 -1)"><rect class="cls-1" width="407.25" height="323.43"/></clipPath><clipPath id="clip-path-3" transform="translate(-1 -1)"><rect class="cls-1" x="44.56" y="215.31" width="309.96" height="50.13"/></clipPath><clipPath id="clip-path-4" transform="translate(-1 -1)"><rect class="cls-1" x="175.06" y="129.29" width="49.22" height="24.82"/></clipPath><clipPath id="clip-path-5" transform="translate(-1 -1)"><rect class="cls-1" x="147.14" y="137.12" width="2.73" height="2.79"/></clipPath><clipPath id="clip-path-6" transform="translate(-1 -1)"><rect class="cls-1" x="156.3" y="118.73" width="2.73" height="2.79"/></clipPath><clipPath id="clip-path-7" transform="translate(-1 -1)"><rect class="cls-1" x="174.07" y="103.83" width="2.73" height="2.8"/></clipPath><clipPath id="clip-path-8" transform="translate(-1 -1)"><rect class="cls-1" x="198.13" y="97.82" width="2.73" height="2.79"/></clipPath><clipPath id="clip-path-9" transform="translate(-1 -1)"><rect class="cls-1" x="248.79" y="137.12" width="2.73" height="2.79"/></clipPath><clipPath id="clip-path-10" transform="translate(-1 -1)"><rect class="cls-1" x="239.63" y="118.73" width="2.73" height="2.79"/></clipPath><clipPath id="clip-path-11" transform="translate(-1 -1)"><rect class="cls-1" x="221.86" y="103.83" width="2.73" height="2.8"/></clipPath><clipPath id="clip-path-12" transform="translate(-1 -1)"><rect class="cls-1" x="231" y="148.86" width="15.26" height="1.81"/></clipPath><clipPath id="clip-path-13" transform="translate(-1 -1)"><rect class="cls-1" x="230.98" y="145.1" width="15.29" height="2.4"/></clipPath><clipPath id="clip-path-14" transform="translate(-1 -1)"><rect class="cls-1" x="229.59" y="140.66" width="15.29" height="3.05"/></clipPath><clipPath id="clip-path-15" transform="translate(-1 -1)"><rect class="cls-1" x="227.62" y="135.8" width="15.56" height="3.86"/></clipPath><clipPath id="clip-path-16" transform="translate(-1 -1)"><rect class="cls-1" x="226.45" y="130.11" width="14.98" height="6.73"/></clipPath><clipPath id="clip-path-17" transform="translate(-1 -1)"><rect class="cls-1" x="224.39" y="125.39" width="14.49" height="7.97"/></clipPath><clipPath id="clip-path-18" transform="translate(-1 -1)"><rect class="cls-1" x="222.13" y="121" width="13.07" height="10.49"/></clipPath><clipPath id="clip-path-19" transform="translate(-1 -1)"><rect class="cls-1" x="219.55" y="117.54" width="11.51" height="11.63"/></clipPath><clipPath id="clip-path-20" transform="translate(-1 -1)"><rect class="cls-1" x="217.23" y="113.96" width="10.39" height="13.14"/></clipPath><clipPath id="clip-path-21" transform="translate(-1 -1)"><rect class="cls-1" x="152.47" y="148.9" width="15.26" height="1.81"/></clipPath><clipPath id="clip-path-22" transform="translate(-1 -1)"><rect class="cls-1" x="152.45" y="145.14" width="15.29" height="2.4"/></clipPath><clipPath id="clip-path-23" transform="translate(-1 -1)"><rect class="cls-1" x="153.85" y="140.7" width="15.29" height="3.05"/></clipPath><clipPath id="clip-path-24" transform="translate(-1 -1)"><rect class="cls-1" x="155.55" y="135.83" width="15.56" height="3.86"/></clipPath><clipPath id="clip-path-25" transform="translate(-1 -1)"><rect class="cls-1" x="157.3" y="130.15" width="14.98" height="6.73"/></clipPath><clipPath id="clip-path-26" transform="translate(-1 -1)"><rect class="cls-1" x="159.84" y="125.43" width="14.49" height="7.97"/></clipPath><clipPath id="clip-path-27" transform="translate(-1 -1)"><rect class="cls-1" x="163.52" y="121.04" width="13.07" height="10.49"/></clipPath><clipPath id="clip-path-28" transform="translate(-1 -1)"><rect class="cls-1" x="167.67" y="117.57" width="11.51" height="11.63"/></clipPath><clipPath id="clip-path-29" transform="translate(-1 -1)"><rect class="cls-1" x="171.1" y="113.99" width="10.39" height="13.14"/></clipPath><clipPath id="clip-path-30" transform="translate(-1 -1)"><rect class="cls-1" x="179.96" y="108.78" width="7.14" height="14.29"/></clipPath><clipPath id="clip-path-31" transform="translate(-1 -1)"><rect class="cls-1" x="186.07" y="106.71" width="4.37" height="15.17"/></clipPath><clipPath id="clip-path-32" transform="translate(-1 -1)"><rect class="cls-1" x="192.26" y="105.54" width="1.71" height="15.5"/></clipPath><clipPath id="clip-path-33" transform="translate(-1 -1)"><rect class="cls-1" x="198.34" y="105.1" width="1.42" height="15.31"/></clipPath><clipPath id="clip-path-34" transform="translate(-1 -1)"><rect class="cls-1" x="203.1" y="105.42" width="3.43" height="15.36"/></clipPath><clipPath id="clip-path-35" transform="translate(-1 -1)"><rect class="cls-1" x="207.16" y="106.53" width="5.35" height="15.15"/></clipPath><clipPath id="clip-path-36" transform="translate(-1 -1)"><rect class="cls-1" x="211.07" y="108.41" width="7.18" height="14.68"/></clipPath><clipPath id="clip-path-37" transform="translate(-1 -1)"><rect class="cls-1" x="19.86" y="286.18" width="306.15" height="26.57"/></clipPath><clipPath id="clip-path-38" transform="translate(-1 -1)"><rect class="cls-1" x="29.54" y="1" width="173.6" height="246.34"/></clipPath><clipPath id="clip-path-39" transform="translate(-1 -1)"><rect class="cls-1" x="203.4" y="54.23" width="137.14" height="171.36"/></clipPath></defs><title>icon_2</title><g id="Слой_2" data-name="Слой 2"><g id="Слой_1-2" data-name="Слой 1"><g class="cls-2"><g class="cls-2"><g class="cls-3"><g class="cls-4"><path class="cls-5" d="M47.79,249.33H353.46M65.78,237.6H332.34M84,225.72H311M196.6,216.37v48m34.55,0-18.15-48m17.41,0,38.37,48m40.9,0-58.82-48m97.54,48-75.17-48m-110.36,48,18.15-48m-17.41,0-38.37,48m-40.91,0,58.83-48m-97.54,48,75.17-48" transform="translate(-1 -1)"/></g></g><polygon class="cls-6" points="9.71 268.05 96.8 212.43 294.41 212.63 394.3 268.05 9.71 268.05"/><path class="cls-7" d="M199.37,220.15c41.42,0,75,3.91,75,8.73s-33.58,8.72-75,8.72-75-3.9-75-8.72,33.57-8.73,75-8.73" transform="translate(-1 -1)"/><rect class="cls-8" x="183.18" y="63.38" width="29.61" height="11.58"/><rect class="cls-9" x="183.18" y="63.38" width="29.61" height="11.58"/><path class="cls-9" d="M199,98.82h0a10.39,10.39,0,0,0,10.36-10.36V66.09a10.36,10.36,0,1,0-20.72,0V88.46A10.39,10.39,0,0,0,199,98.82Z" transform="translate(-1 -1)"/><line class="cls-9" x1="192.09" y1="64.04" x2="192.09" y2="74.96"/><line class="cls-9" x1="196.36" y1="64.04" x2="196.36" y2="74.96"/><line class="cls-9" x1="200.32" y1="64.04" x2="200.32" y2="74.96"/><line class="cls-9" x1="204.46" y1="64.04" x2="204.46" y2="74.96"/><path class="cls-10" d="M199.66,84.68a69.23,69.23,0,1,1-69.18,69.23,69.21,69.21,0,0,1,69.18-69.23" transform="translate(-1 -1)"/><path class="cls-11" d="M199.54,225.55a71.8,71.8,0,1,0-71.8-71.79,71.79,71.79,0,0,0,71.8,71.79m.15-139.66a68.05,68.05,0,1,1-68,68.05A68,68,0,0,1,199.69,85.89Z" transform="translate(-1 -1)"/><path class="cls-12" d="M259.24,153.76a59.75,59.75,0,0,1-59.7,59.7c-1.2,0-2.39,0-3.58-.12a59.69,59.69,0,0,1,0-119.17c1.19-.09,2.38-.12,3.58-.12a59.76,59.76,0,0,1,59.7,59.71" transform="translate(-1 -1)"/><path class="cls-13" d="M259.24,153.76V154H139.84v-.24A59.7,59.7,0,0,1,196,94.17c1.2-.09,2.39-.12,3.59-.12A59.76,59.76,0,0,1,259.24,153.76Z" transform="translate(-1 -1)"/><path class="cls-14" d="M259.24,153.76V154H139.84v-.24A59.7,59.7,0,0,1,196,94.17c1.2-.09,2.39-.12,3.59-.12A59.76,59.76,0,0,1,259.24,153.76Z" transform="translate(-1 -1)"/><path class="cls-11" d="M199.54,215.2a61.45,61.45,0,1,0-61.45-61.44,61.44,61.44,0,0,0,61.45,61.44m.12-119.53a58.24,58.24,0,1,1-58.2,58.24A58.23,58.23,0,0,1,199.66,95.67Z" transform="translate(-1 -1)"/><path class="cls-15" d="M199.54,105.1a47.14,47.14,0,0,1,47.13,47.17c0,.58,0,1.15,0,1.73H231.33c0-.57,0-1.15,0-1.73a31.84,31.84,0,1,0-63.68,0c0,.58,0,1.16,0,1.73H152.43c0-.58,0-1.15,0-1.73A47.15,47.15,0,0,1,199.54,105.1Z" transform="translate(-1 -1)"/><path class="cls-16" d="M199.54,105.1a47.14,47.14,0,0,1,47.13,47.17c0,.58,0,1.15,0,1.73H231.33c0-.57,0-1.15,0-1.73a31.84,31.84,0,1,0-63.68,0c0,.58,0,1.16,0,1.73H152.43c0-.58,0-1.15,0-1.73A47.15,47.15,0,0,1,199.54,105.1Z" transform="translate(-1 -1)"/><path class="cls-17" d="M167.74,154q-.33-19.33,16.12-29.47l-7.36-12.71c-.14-.48-.24-.66-.31-.54Q152.27,126.21,152.43,154Z" transform="translate(-1 -1)"/><path class="cls-16" d="M167.74,154q-.33-19.33,16.12-29.47l-7.36-12.71c-.14-.48-.24-.66-.31-.54Q152.27,126.21,152.43,154Z" transform="translate(-1 -1)"/><path class="cls-16" d="M176.19,111.28,184.14,125" transform="translate(-1 -1)"/><path class="cls-18" d="M231.32,154q.35-19.33-16.11-29.47l7.36-12.71c.13-.48.24-.66.3-.54q23.94,14.93,23.76,42.72Z" transform="translate(-1 -1)"/><path class="cls-16" d="M231.32,154q.35-19.33-16.11-29.47l7.36-12.71c.13-.48.24-.66.3-.54q23.94,14.93,23.76,42.72Z" transform="translate(-1 -1)"/><path class="cls-16" d="M222.87,111.28,214.93,125" transform="translate(-1 -1)"/><g class="cls-19"><g class="cls-20"><path class="cls-21" d="M199.67,129.64a24.26,24.26,0,0,1,24.25,24.12H175.41A24.27,24.27,0,0,1,199.67,129.64Z" transform="translate(-1 -1)"/></g></g><path class="cls-18" d="M199.67,138.55a15.37,15.37,0,1,1-15.36,15.36A15.36,15.36,0,0,1,199.67,138.55Z" transform="translate(-1 -1)"/><path class="cls-22" d="M199.67,138.55a15.37,15.37,0,1,1-15.36,15.36A15.36,15.36,0,0,1,199.67,138.55Z" transform="translate(-1 -1)"/><g class="cls-19"><g class="cls-23"><path class="cls-24" d="M148.51,137.48a1,1,0,1,1-1,1A1,1,0,0,1,148.51,137.48Z" transform="translate(-1 -1)"/><path class="cls-21" d="M148.51,137.48a1,1,0,1,1-1,1A1,1,0,0,1,148.51,137.48Z" transform="translate(-1 -1)"/></g></g><g class="cls-19"><g class="cls-25"><path class="cls-24" d="M157.66,119.08a1,1,0,1,1-1,1A1,1,0,0,1,157.66,119.08Z" transform="translate(-1 -1)"/><path class="cls-21" d="M157.66,119.08a1,1,0,1,1-1,1A1,1,0,0,1,157.66,119.08Z" transform="translate(-1 -1)"/></g></g><g class="cls-19"><g class="cls-26"><path class="cls-24" d="M175.44,104.18a1,1,0,1,1-1,1A1,1,0,0,1,175.44,104.18Z" transform="translate(-1 -1)"/><path class="cls-21" d="M175.44,104.18a1,1,0,1,1-1,1A1,1,0,0,1,175.44,104.18Z" transform="translate(-1 -1)"/></g></g><g class="cls-19"><g class="cls-27"><path class="cls-24" d="M199.5,98.17a1,1,0,1,1-1,1A1,1,0,0,1,199.5,98.17Z" transform="translate(-1 -1)"/><path class="cls-21" d="M199.5,98.17a1,1,0,1,1-1,1A1,1,0,0,1,199.5,98.17Z" transform="translate(-1 -1)"/></g></g><g class="cls-19"><g class="cls-28"><path class="cls-24" d="M250.15,137.48a1,1,0,1,0,1,1A1,1,0,0,0,250.15,137.48Z" transform="translate(-1 -1)"/><path class="cls-21" d="M250.15,137.48a1,1,0,1,0,1,1A1,1,0,0,0,250.15,137.48Z" transform="translate(-1 -1)"/></g></g><g class="cls-19"><g class="cls-29"><path class="cls-24" d="M241,119.08a1,1,0,1,0,1,1A1,1,0,0,0,241,119.08Z" transform="translate(-1 -1)"/><path class="cls-21" d="M241,119.08a1,1,0,1,0,1,1A1,1,0,0,0,241,119.08Z" transform="translate(-1 -1)"/></g></g><g class="cls-19"><g class="cls-30"><path class="cls-24" d="M223.22,104.18a1,1,0,1,0,1,1A1,1,0,0,0,223.22,104.18Z" transform="translate(-1 -1)"/><path class="cls-21" d="M223.22,104.18a1,1,0,1,0,1,1A1,1,0,0,0,223.22,104.18Z" transform="translate(-1 -1)"/></g></g><g class="cls-31"><g class="cls-32"><line class="cls-16" x1="245.24" y1="148.57" x2="230.02" y2="148.96"/></g></g><g class="cls-31"><g class="cls-33"><line class="cls-16" x1="245.22" y1="144.81" x2="230.03" y2="145.79"/></g></g><g class="cls-31"><g class="cls-34"><line class="cls-16" x1="243.8" y1="140.36" x2="228.66" y2="142.01"/></g></g><g class="cls-31"><g class="cls-35"><line class="cls-16" x1="242.07" y1="135.5" x2="226.73" y2="137.96"/></g></g><g class="cls-31"><g class="cls-36"><line class="cls-16" x1="240.18" y1="129.78" x2="225.7" y2="135.18"/></g></g><g class="cls-31"><g class="cls-37"><line class="cls-16" x1="237.58" y1="125.03" x2="223.7" y2="131.73"/></g></g><g class="cls-31"><g class="cls-38"><line class="cls-16" x1="233.77" y1="120.56" x2="221.56" y2="129.93"/></g></g><g class="cls-31"><g class="cls-39"><line class="cls-16" x1="229.55" y1="117.03" x2="219.05" y2="127.67"/></g></g><g class="cls-31"><g class="cls-40"><line class="cls-16" x1="226.06" y1="113.38" x2="216.8" y2="125.67"/></g></g><path class="cls-41" d="M199.67,144.45c1.16,0,3.69,1.27,4.49.76L234,126.31,209.56,152c-.8.85-.43.76-.43,1.93a9.47,9.47,0,1,1-9.46-9.46Z" transform="translate(-1 -1)"/><path class="cls-16" d="M199.67,144.45c1.16,0,3.69,1.27,4.49.76L234,126.31,209.56,152c-.8.85-.43.76-.43,1.93a9.47,9.47,0,1,1-9.46-9.46Z" transform="translate(-1 -1)"/><path class="cls-17" d="M199.67,149.41a4.51,4.51,0,1,1-4.5,4.5,4.5,4.5,0,0,1,4.5-4.5" transform="translate(-1 -1)"/><g class="cls-42"><g class="cls-43"><line class="cls-16" x1="151.49" y1="148.61" x2="166.71" y2="149"/></g></g><g class="cls-42"><g class="cls-44"><line class="cls-16" x1="151.5" y1="144.85" x2="166.69" y2="145.83"/></g></g><g class="cls-42"><g class="cls-45"><line class="cls-16" x1="152.92" y1="140.4" x2="168.06" y2="142.05"/></g></g><g class="cls-42"><g class="cls-46"><line class="cls-16" x1="154.66" y1="135.53" x2="169.99" y2="138"/></g></g><g class="cls-42"><g class="cls-47"><line class="cls-16" x1="156.55" y1="129.81" x2="171.03" y2="135.21"/></g></g><g class="cls-42"><g class="cls-48"><line class="cls-16" x1="159.15" y1="125.07" x2="173.02" y2="131.76"/></g></g><g class="cls-42"><g class="cls-49"><line class="cls-16" x1="162.95" y1="120.6" x2="175.16" y2="129.97"/></g></g><g class="cls-42"><g class="cls-50"><line class="cls-16" x1="167.17" y1="117.07" x2="177.67" y2="127.7"/></g></g><g class="cls-42"><g class="cls-51"><line class="cls-16" x1="170.67" y1="113.42" x2="179.93" y2="125.71"/></g></g><g class="cls-3"><g class="cls-52"><line class="cls-16" x1="179.61" y1="108.05" x2="185.45" y2="121.79"/></g></g><g class="cls-3"><g class="cls-53"><line class="cls-16" x1="188.75" y1="120.74" x2="185.77" y2="105.85"/></g></g><g class="cls-3"><g class="cls-54"><line class="cls-16" x1="191.97" y1="104.55" x2="192.26" y2="120.02"/></g></g><g class="cls-3"><g class="cls-55"><line class="cls-16" x1="198.05" y1="104.1" x2="198.05" y2="119.41"/></g></g><g class="cls-3"><g class="cls-56"><line class="cls-16" x1="202.8" y1="119.69" x2="204.82" y2="104.51"/></g></g><g class="cls-3"><g class="cls-57"><line class="cls-16" x1="210.82" y1="105.71" x2="206.84" y2="120.5"/></g></g><g class="cls-3"><g class="cls-58"><line class="cls-16" x1="216.59" y1="107.68" x2="210.72" y2="121.82"/></g></g><path class="cls-11" d="M173.7,170.69a10.27,10.27,0,1,0,3,7.26,10.17,10.17,0,0,0-3-7.26m-7.27,16.66a9.4,9.4,0,1,1,9.41-9.4A9.41,9.41,0,0,1,166.43,187.35Z" transform="translate(-1 -1)"/><path class="cls-11" d="M166.43,171.78a.44.44,0,0,0,.44-.44v-1.48a.44.44,0,0,0-.44-.43.43.43,0,0,0-.43.43v1.48a.43.43,0,0,0,.43.44" transform="translate(-1 -1)"/><path class="cls-11" d="M160.26,178a.43.43,0,0,0-.43-.43h-1.49a.43.43,0,0,0-.43.43.44.44,0,0,0,.43.44h1.49a.44.44,0,0,0,.43-.44" transform="translate(-1 -1)"/><path class="cls-11" d="M160.49,180.88l-1.28.74a.44.44,0,0,0-.16.6.43.43,0,0,0,.38.21.44.44,0,0,0,.22-.05l1.28-.75a.43.43,0,0,0,.16-.59.44.44,0,0,0-.6-.16" transform="translate(-1 -1)"/><path class="cls-11" d="M162.77,170.73a.44.44,0,0,0-.6-.16.43.43,0,0,0-.16.59l.74,1.29a.44.44,0,0,0,.38.22.46.46,0,0,0,.22-.06.44.44,0,0,0,.16-.6Z" transform="translate(-1 -1)"/><path class="cls-11" d="M160.93,174.27l-1.28-.74a.44.44,0,0,0-.44.76l1.28.74a.46.46,0,0,0,.22.06.44.44,0,0,0,.22-.82" transform="translate(-1 -1)"/><path class="cls-11" d="M169.52,172.61a.43.43,0,0,0,.22.06.45.45,0,0,0,.38-.22l.74-1.29a.43.43,0,0,0-.16-.59.44.44,0,0,0-.6.16l-.74,1.28a.44.44,0,0,0,.16.6" transform="translate(-1 -1)"/><path class="cls-11" d="M168.71,183h-3a.44.44,0,1,0,0,.87h3a.44.44,0,0,0,0-.87" transform="translate(-1 -1)"/><path class="cls-11" d="M164.2,183h0a.44.44,0,1,0,0,.87h0a.44.44,0,1,0,0-.87" transform="translate(-1 -1)"/><path class="cls-11" d="M241,170.69a10.27,10.27,0,1,0,3,7.26,10.17,10.17,0,0,0-3-7.26m-7.27,16.66a9.4,9.4,0,1,1,9.4-9.4A9.41,9.41,0,0,1,233.74,187.35Z" transform="translate(-1 -1)"/><path class="cls-11" d="M242.27,178a8.54,8.54,0,0,0-1.12-4.22.08.08,0,0,1,0,0,.44.44,0,0,0-.6-.16l-1.29.74a.44.44,0,0,0,.22.82.43.43,0,0,0,.22-.06l.89-.52a7.57,7.57,0,0,1,.79,2.75,73.35,73.35,0,0,0-7.23-1.49,2.17,2.17,0,0,0-1.54.66,2.19,2.19,0,0,0,1.58,3.71h0c.85,0,5.47-1.27,7.17-1.74a7.61,7.61,0,0,1-.81,3l-.89-.51a.43.43,0,1,0-.44.75l1.29.75a.42.42,0,0,0,.22.05.44.44,0,0,0,.38-.21.05.05,0,0,1,0,0,8.6,8.6,0,0,0,1.12-4.23m-8.08,1.31a1.32,1.32,0,0,1-1-2.22,1.34,1.34,0,0,1,.92-.4h0c.57,0,3.43.63,5.91,1.21A60.26,60.26,0,0,1,234.19,179.26Z" transform="translate(-1 -1)"/><path class="cls-11" d="M233.74,171.78a.44.44,0,0,0,.44-.44v-1.48a.44.44,0,0,0-.88,0v1.48a.44.44,0,0,0,.44.44" transform="translate(-1 -1)"/><path class="cls-11" d="M227.57,178a.44.44,0,0,0-.44-.43h-1.48a.44.44,0,0,0-.44.43.44.44,0,0,0,.44.44h1.48a.44.44,0,0,0,.44-.44" transform="translate(-1 -1)"/><path class="cls-11" d="M227.8,180.88l-1.28.74a.44.44,0,0,0-.16.6.45.45,0,0,0,.59.16l1.29-.75a.43.43,0,0,0,.16-.59.44.44,0,0,0-.6-.16" transform="translate(-1 -1)"/><path class="cls-11" d="M230.07,170.73a.43.43,0,0,0-.75.43l.74,1.29a.44.44,0,0,0,.38.22.46.46,0,0,0,.22-.06.45.45,0,0,0,.16-.6Z" transform="translate(-1 -1)"/><path class="cls-11" d="M228.24,174.27l-1.29-.74a.43.43,0,0,0-.59.16.44.44,0,0,0,.16.6l1.28.74a.43.43,0,0,0,.22.06.44.44,0,0,0,.22-.82" transform="translate(-1 -1)"/><path class="cls-11" d="M236.83,172.61a.39.39,0,0,0,.21.06.44.44,0,0,0,.38-.22l.74-1.29a.43.43,0,0,0-.75-.43l-.74,1.28a.43.43,0,0,0,.16.6" transform="translate(-1 -1)"/><path class="cls-11" d="M236,183h-3a.44.44,0,1,0,0,.87h3a.44.44,0,1,0,0-.87" transform="translate(-1 -1)"/><path class="cls-11" d="M231.51,183h0a.44.44,0,1,0,0,.87h0a.44.44,0,1,0,0-.87" transform="translate(-1 -1)"/><path class="cls-11" d="M172.61,178a.44.44,0,0,1,.44-.43h1.48a.44.44,0,0,1,.44.43.44.44,0,0,1-.44.44h-1.48a.44.44,0,0,1-.44-.44" transform="translate(-1 -1)"/><path class="cls-11" d="M172.38,180.88l1.28.74a.44.44,0,0,1,.16.6.45.45,0,0,1-.59.16l-1.29-.75a.43.43,0,0,1-.16-.59.44.44,0,0,1,.6-.16" transform="translate(-1 -1)"/><path class="cls-11" d="M171.94,174.27l1.29-.74a.43.43,0,0,1,.59.16.44.44,0,0,1-.16.6l-1.28.74a.43.43,0,0,1-.22.06.44.44,0,0,1-.22-.82" transform="translate(-1 -1)"/><path class="cls-59" d="M166.44,175.55a2,2,0,1,1-2,2,2,2,0,0,1,2-2" transform="translate(-1 -1)"/><path class="cls-11" d="M194.16,192.46l6.52-8.22-1.22,6.41a.92.92,0,0,0,.2.74.89.89,0,0,0,.67.33l5.15,0-6.06,8.77,1.19-7a.85.85,0,0,0-.19-.72.84.84,0,0,0-.65-.3Zm3.37,12.68a.92.92,0,0,0,.32.07.87.87,0,0,0,.74-.39l9.32-13.47a.87.87,0,0,0,.07-.92.92.92,0,0,0-.79-.47l-5.77-.05,1.67-8.86a.89.89,0,0,0-.5-1,.88.88,0,0,0-1.06.26l-9.89,12.45a.87.87,0,0,0-.11.94.9.9,0,0,0,.81.49l6.38,0-1.71,9.9A.85.85,0,0,0,197.53,205.14Z" transform="translate(-1 -1)"/><g class="cls-19"><g class="cls-60"><path class="cls-9" d="M316.6,311l2.91-1.55,4.31-2.29L316.6,303v8Zm-22.17-4H316.6M20.93,286.18V307h273.5" transform="translate(-1 -1)"/></g></g><polygon class="cls-61" points="373.2 294.38 335.17 294.82 335.17 320.02 336.42 321.43 363.94 321.43 373.75 311.62 373.2 294.38"/><polygon class="cls-62" points="364.5 311.7 372.6 312 364.05 320.32 364.05 313.5 364.5 311.7"/><polygon class="cls-62" points="373.2 294.38 372.82 287.4 335.62 287.55 335.17 294.82 373.2 294.38"/><path class="cls-11" d="M351.7,299.51a2.67,2.67,0,1,0,2.66,2.67,2.68,2.68,0,0,0-2.66-2.67m0,4a1.36,1.36,0,1,1,1.35-1.36A1.36,1.36,0,0,1,351.7,303.54Z" transform="translate(-1 -1)"/><path class="cls-11" d="M358.65,304.85a2.67,2.67,0,1,0-2.67-2.67,2.67,2.67,0,0,0,2.67,2.67m0-4a1.36,1.36,0,1,1-1.36,1.36A1.36,1.36,0,0,1,358.65,300.82Z" transform="translate(-1 -1)"/><path class="cls-11" d="M365.6,304.85a2.67,2.67,0,1,0-2.67-2.67,2.68,2.68,0,0,0,2.67,2.67m0-4a1.36,1.36,0,1,1-1.36,1.36A1.36,1.36,0,0,1,365.6,300.82Z" transform="translate(-1 -1)"/><path class="cls-11" d="M351.7,306a2.67,2.67,0,1,0,2.66,2.66A2.67,2.67,0,0,0,351.7,306m0,4a1.36,1.36,0,1,1,1.35-1.36A1.36,1.36,0,0,1,351.7,310Z" transform="translate(-1 -1)"/><path class="cls-11" d="M365.6,311.35a2.67,2.67,0,1,0-2.67-2.67,2.68,2.68,0,0,0,2.67,2.67m0-4a1.36,1.36,0,1,1-1.36,1.36A1.36,1.36,0,0,1,365.6,307.32Z" transform="translate(-1 -1)"/><path class="cls-11" d="M358.65,311.35a2.67,2.67,0,1,0-2.67-2.67,2.67,2.67,0,0,0,2.67,2.67m0-4a1.36,1.36,0,1,1-1.36,1.36A1.36,1.36,0,0,1,358.65,307.32Z" transform="translate(-1 -1)"/><path class="cls-11" d="M358.65,317.85a2.67,2.67,0,1,0-2.67-2.66,2.66,2.66,0,0,0,2.67,2.66m0-4a1.36,1.36,0,1,1-1.36,1.36A1.36,1.36,0,0,1,358.65,313.83Z" transform="translate(-1 -1)"/><path class="cls-11" d="M351.7,312.52a2.67,2.67,0,1,0,2.66,2.67,2.68,2.68,0,0,0-2.66-2.67m0,4a1.36,1.36,0,1,1,1.35-1.36A1.36,1.36,0,0,1,351.7,316.55Z" transform="translate(-1 -1)"/><path class="cls-11" d="M342.86,304.06a.65.65,0,0,0,.46.2.63.63,0,0,0,.46-.2l1-1,1,1a.64.64,0,0,0,.93,0,.66.66,0,0,0,0-.92l-1-1,1-1a.66.66,0,0,0-.93-.93l-1,1-1-1a.65.65,0,1,0-.92.93l1,1-1,1a.64.64,0,0,0,0,.92" transform="translate(-1 -1)"/><path class="cls-11" d="M342.86,310.57a.63.63,0,0,0,.46.19.62.62,0,0,0,.46-.19l1-1,1,1a.66.66,0,0,0,.93,0,.67.67,0,0,0,0-.93l-1-1,1-1a.65.65,0,1,0-.93-.92l-1,1-1-1a.65.65,0,1,0-.92.92l1,1-1,1a.65.65,0,0,0,0,.93" transform="translate(-1 -1)"/><path class="cls-11" d="M346.63,313.3a.67.67,0,0,0-.93,0l-1,1-1-1a.65.65,0,1,0-.92.93l1,1-1,1a.65.65,0,0,0,.46,1.11.62.62,0,0,0,.46-.19l1-1,1,1a.65.65,0,1,0,.93-.92l-1-1,1-1a.67.67,0,0,0,0-.93" transform="translate(-1 -1)"/><path class="cls-11" d="M380.19,318.09l-1.79-9.38a.65.65,0,1,0-1.28.25l1.78,9.38a.9.9,0,0,1-.95,1h-9.67l6.28-6.28a.67.67,0,0,0,.19-.46V296.47l1.79,9.43a.65.65,0,0,0,1.28-.24l-3.08-16.22a1.81,1.81,0,0,0-1.81-1.73H367.2V285.6a.66.66,0,0,0-.66-.65.65.65,0,0,0-.65.65v2.11h-4.38V285.6a.65.65,0,0,0-.65-.65.66.66,0,0,0-.66.65v2.11h-4.37V285.6a.66.66,0,0,0-.66-.65.65.65,0,0,0-.65.65v2.11h-4.38V285.6a.66.66,0,0,0-1.31,0v2.11h-4.38V285.6a.65.65,0,0,0-1.3,0v2.11h-5.73a1.81,1.81,0,0,0-1.82,1.82v31.08a1.81,1.81,0,0,0,1.82,1.82h16.23a.65.65,0,0,0,0-1.3H337.42a.52.52,0,0,1-.52-.52V296.19h36.54V312H366.1a1.82,1.82,0,0,0-1.82,1.82v7.34H356.7a.65.65,0,1,0,0,1.3h8.23a.66.66,0,0,0,.47-.19l1.57-1.57h11a2.22,2.22,0,0,0,2.24-2.58m-43.29-23.2v-5.36a.52.52,0,0,1,.52-.52h5.73V292a.65.65,0,1,0,1.3,0V289h4.38V292a.66.66,0,0,0,.66.65.65.65,0,0,0,.65-.65V289h4.38V292a.65.65,0,0,0,.65.65.66.66,0,0,0,.66-.65V289h4.37V292a.66.66,0,0,0,.66.65.65.65,0,0,0,.65-.65V289h4.38V292a.65.65,0,0,0,.65.65.66.66,0,0,0,.66-.65V289h5.73a.51.51,0,0,1,.51.52v5.36Zm28.69,18.9a.51.51,0,0,1,.51-.51h6.41l-6.92,6.92Z" transform="translate(-1 -1)"/><g class="cls-19"><g class="cls-63"><path class="cls-64" d="M201,3.13Q119,3.55,64.25,72.58,21.39,135,34.71,204.66A167.85,167.85,0,0,0,48,245.21" transform="translate(-1 -1)"/></g></g><g class="cls-3"><g class="cls-65"><path class="cls-64" d="M205.52,56.35q64,.34,106.7,54.18c20.79,30.27,35.65,88.89,19.3,123.17" transform="translate(-1 -1)"/></g></g><circle class="cls-66" cx="325.66" cy="136.11" r="5.13" transform="translate(149.78 441.7) rotate(-82.98)"/><circle class="cls-67" cx="325.66" cy="136.11" r="5.13" transform="translate(149.78 441.7) rotate(-82.98)"/><circle class="cls-68" cx="30.63" cy="179.09" r="5.13"/><circle class="cls-9" cx="30.63" cy="179.09" r="5.13"/><circle class="cls-66" cx="56.57" cy="81.9" r="5.13"/><circle class="cls-67" cx="56.57" cy="81.9" r="5.13"/><rect class="cls-69" x="49.42" y="181.17" width="40.35" height="63.93"/><rect class="cls-70" x="49.42" y="181.17" width="40.35" height="63.93"/><polygon class="cls-61" points="89.77 181.3 89.77 245.1 109.26 230.3 109.26 166.61 89.77 181.3"/><polygon class="cls-70" points="89.77 181.3 89.77 245.1 109.26 230.3 109.26 166.61 89.77 181.3"/><polygon class="cls-71" points="89.77 181.3 109.26 166.61 68.9 166.61 49.57 181.18 89.77 181.3"/><polygon class="cls-70" points="89.77 181.3 109.26 166.61 68.9 166.61 49.57 181.18 89.77 181.3"/><path class="cls-72" d="M284.69,32.57A1.26,1.26,0,0,0,286,31.31V17.86a5.08,5.08,0,0,0-5.07-5.08h-1.65V11.51a1.27,1.27,0,0,0-2.54,0v1.27h-5.77V11.51a1.27,1.27,0,0,0-2.54,0v1.27h-5.71V11.51a1.27,1.27,0,1,0-2.54,0v1.27h-1.58a5.09,5.09,0,0,0-5.08,5.08V37.65a5.08,5.08,0,0,0,5.08,5.07h22.33A5.07,5.07,0,0,0,286,37.65a1.27,1.27,0,1,0-2.53,0,2.54,2.54,0,0,1-2.54,2.54H258.56A2.54,2.54,0,0,1,256,37.65V17.86a2.54,2.54,0,0,1,2.54-2.54h1.58v1.27a1.27,1.27,0,0,0,2.54,0V15.32h5.71v1.27a1.27,1.27,0,0,0,2.54,0V15.32h5.77v1.27a1.27,1.27,0,0,0,2.54,0V15.32h1.65a2.54,2.54,0,0,1,2.54,2.54V31.31a1.25,1.25,0,0,0,1.26,1.26" transform="translate(-1 -1)"/><path class="cls-72" d="M262.68,23.57a1.27,1.27,0,1,1-1.27-1.27,1.26,1.26,0,0,1,1.27,1.27" transform="translate(-1 -1)"/><path class="cls-72" d="M273.72,23.57a1.27,1.27,0,1,1-1.27-1.27,1.26,1.26,0,0,1,1.27,1.27" transform="translate(-1 -1)"/><path class="cls-72" d="M279.24,23.57A1.27,1.27,0,1,1,278,22.3a1.26,1.26,0,0,1,1.27,1.27" transform="translate(-1 -1)"/><path class="cls-72" d="M262.68,29.09a1.27,1.27,0,1,1-1.27-1.27,1.26,1.26,0,0,1,1.27,1.27" transform="translate(-1 -1)"/><path class="cls-72" d="M262.68,34.6a1.27,1.27,0,1,1-1.27-1.26,1.27,1.27,0,0,1,1.27,1.26" transform="translate(-1 -1)"/><path class="cls-72" d="M268.2,23.57a1.27,1.27,0,1,1-1.27-1.27,1.26,1.26,0,0,1,1.27,1.27" transform="translate(-1 -1)"/><path class="cls-72" d="M268.2,29.09a1.27,1.27,0,1,1-1.27-1.27,1.26,1.26,0,0,1,1.27,1.27" transform="translate(-1 -1)"/><path class="cls-72" d="M268.2,34.6a1.27,1.27,0,1,1-1.27-1.26,1.27,1.27,0,0,1,1.27,1.26" transform="translate(-1 -1)"/><path class="cls-72" d="M273.72,29.09a1.27,1.27,0,1,1-1.27-1.27,1.26,1.26,0,0,1,1.27,1.27" transform="translate(-1 -1)"/><path class="cls-72" d="M279.24,29.09A1.27,1.27,0,1,1,278,27.82a1.26,1.26,0,0,1,1.27,1.27" transform="translate(-1 -1)"/><path class="cls-72" d="M273.72,34.6a1.27,1.27,0,1,1-1.27-1.26,1.27,1.27,0,0,1,1.27,1.26" transform="translate(-1 -1)"/><path class="cls-72" d="M350.17,91.38a7.93,7.93,0,1,1,7.92-7.93,7.94,7.94,0,0,1-7.92,7.93m0-18.28a10.36,10.36,0,1,0,10.36,10.35A10.37,10.37,0,0,0,350.17,73.1Z" transform="translate(-1 -1)"/><path class="cls-72" d="M350.17,96.11a12.66,12.66,0,1,1,12.66-12.66,12.68,12.68,0,0,1-12.66,12.66m5,5.31h-10V97.69a15.25,15.25,0,0,0,10,0Zm-10-36.1h10v3.9a15.08,15.08,0,0,0-10,0Zm23,15.28a1.22,1.22,0,0,0-1.22,1.22v.73h-1.7A15,15,0,0,0,362.64,75L364,73.63c.4.33.67.91,1.41.91a1.22,1.22,0,0,0,.86-2.08l-2.79-2.79a1.22,1.22,0,0,0-1.72,1.72l.52.52L361.16,73h0l0,0h0a15.47,15.47,0,0,0-3.49-2.74V64.11a1.22,1.22,0,0,0-1.22-1.22H343.93a1.22,1.22,0,0,0-1.21,1.22v6.22a15.09,15.09,0,0,0,0,26.24v6.07a1.21,1.21,0,0,0,1.21,1.21H356.4a1.22,1.22,0,0,0,1.22-1.21V96.57A15.1,15.1,0,0,0,365.18,85h1.75v.78a1.22,1.22,0,0,0,2.43,0V81.82A1.22,1.22,0,0,0,368.15,80.6Z" transform="translate(-1 -1)"/><path class="cls-72" d="M355,78.74a1.21,1.21,0,0,0-1.72,0L350.16,82l-1.47-1.46A1.22,1.22,0,1,0,347,82.3l2.33,2.32a1.21,1.21,0,0,0,.86.35h0a1.19,1.19,0,0,0,.87-.37l4-4.14a1.21,1.21,0,0,0,0-1.72" transform="translate(-1 -1)"/><path class="cls-72" d="M377.38,183a9.11,9.11,0,0,1,9,8H368.35a9.11,9.11,0,0,1,9-8m-9-10.15h18a9.08,9.08,0,0,1-18,0Zm-.75-3.77h19.53v1.65H367.6Zm19.53,25.71H367.57v-1.65h19.54v1.65Zm-20.93-3.72a1.05,1.05,0,0,0-.75,1v3.78a1.05,1.05,0,0,0,1.06,1.06H388.2a1.05,1.05,0,0,0,1.06-1.06v-3.78a1.05,1.05,0,0,0-.75-1,11.22,11.22,0,0,0-6.42-9.13,11.25,11.25,0,0,0,6.42-9.14,1.05,1.05,0,0,0,.75-1V168a1.05,1.05,0,0,0-1.06-1.06H366.51a1.05,1.05,0,0,0-1.06,1.06v3.78a1.05,1.05,0,0,0,.75,1,11.23,11.23,0,0,0,6.42,9.14A11.14,11.14,0,0,0,366.2,191.05Z" transform="translate(-1 -1)"/></g></g></g></g></svg>