<svg xmlns="http://www.w3.org/2000/svg" xmlns:xlink="http://www.w3.org/1999/xlink" viewBox="0 0 414.77 321.83"><defs><style>.cls-1,.cls-15,.cls-18,.cls-25,.cls-30{fill:none;}.cls-2{clip-path:url(#clip-path);}.cls-11,.cls-3{fill:#1a1a2c;}.cls-12,.cls-16,.cls-17,.cls-3,.cls-4,.cls-7,.cls-8,.cls-9{fill-rule:evenodd;}.cls-4,.cls-5{fill:#111117;}.cls-11,.cls-13,.cls-4,.cls-6,.cls-7{opacity:0.5;}.cls-28,.cls-5{opacity:0.4;}.cls-10,.cls-12,.cls-16,.cls-17,.cls-22,.cls-6{fill:#fff;}.cls-7{fill:#4a4860;}.cls-8{fill:#2d2b49;}.cls-9{fill:#161623;}.cls-14{clip-path:url(#clip-path-3);}.cls-15,.cls-18{stroke:#fff;}.cls-15,.cls-18,.cls-25,.cls-30{stroke-miterlimit:22.93;}.cls-15,.cls-25{stroke-width:2.13px;}.cls-16{opacity:0.3;}.cls-17,.cls-22{opacity:0.1;}.cls-18{stroke-width:5.67px;}.cls-19{clip-path:url(#clip-path-4);}.cls-20{opacity:0.2;}.cls-21{clip-path:url(#clip-path-5);}.cls-23{fill:#807c9a;}.cls-24{fill:#575473;}.cls-25{stroke:#9795ae;}.cls-26{fill:#181826;}.cls-27{fill:#302c4b;}.cls-29{clip-path:url(#clip-path-6);}.cls-30{stroke:#1c1c1c;stroke-width:0.57px;}</style><clipPath id="clip-path" transform="translate(-1 -1)"><rect class="cls-1" width="416.77" height="323.83"/></clipPath><clipPath id="clip-path-3" transform="translate(-1 -1)"><rect class="cls-1" x="17.57" y="264.78" width="381.08" height="32.65"/></clipPath><clipPath id="clip-path-4" transform="translate(-1 -1)"><rect class="cls-1" x="1" y="219.37" width="414.77" height="23.2"/></clipPath><clipPath id="clip-path-5" transform="translate(-1 -1)"><rect class="cls-1" x="1" y="236.9" width="414.77" height="21.85"/></clipPath><clipPath id="clip-path-6" transform="translate(-1 -1)"><rect class="cls-1" x="198.43" y="290.06" width="19.38" height="19.38"/></clipPath></defs><title>icon_1</title><g id="Слой_2" data-name="Слой 2"><g id="Слой_1-2" data-name="Слой 1"><g class="cls-2"><g class="cls-2"><path class="cls-3" d="M281.18,176.61l-1-49.38-2.53-3-3.22,2-1.07,50.38Z" transform="translate(-1 -1)"/><path class="cls-4" d="M277,122.74l10.85-8.39,3.3,3.6q12.09,4.38,12.42,6.75.45,17.79.46,17.79-1,34.19-1,34.19l-51.6-.07q-1.06-49.16-1.07-49.15,1.47-4.47,3.6-5.37l10.24-4.71,3.18-2.8,9.62,8.16" transform="translate(-1 -1)"/><path class="cls-3" d="M267.9,115.11c.16-3.68.23-5.52.23-5.52L263.69,100c-2.29-1.28-2.95-3.42-2-6.44a18.91,18.91,0,0,1,.69-11.27q8-14.11,24.46-4.83l4.53,1.61q2.61,4.67.15,13.8,3.38,3.25,0,7-2.62-.19-2.38,4.06a11.63,11.63,0,0,1-2.76,5.29c.16,3.94.23,5.9.23,5.9l-9.34,8.44-9.37-8.44" transform="translate(-1 -1)"/><path class="cls-5" d="M283.61,89.35c-5.68,3.1-13.26,2-16,1.4l-1.05,2.52a2.08,2.08,0,0,1-2.41,1.23,3.9,3.9,0,0,0-.65-.09,8.32,8.32,0,0,1-.41-1.62,2.4,2.4,0,0,1-.06-.4l-.48-2.3q-.44-6.86,2.87-11,4.95-5,13.79-3.7A16.19,16.19,0,0,1,287,78.94c.3.06.79.15,1.48.25,2.54.79,3.54,3.23,3,7.33a16.58,16.58,0,0,1-1.06,5.64l.13,0a3.83,3.83,0,0,0,1.19,2.3,1.34,1.34,0,0,0-1.33.52,1.71,1.71,0,0,1-.89.61,1.73,1.73,0,0,1-1.51-.24,9.86,9.86,0,0,1-1.12-.93h0a10.15,10.15,0,0,1-1.51-1.86,1.22,1.22,0,0,1-.14-.33c-.51-.79-1.05-1.74-1.63-2.84" transform="translate(-1 -1)"/><path class="cls-6" d="M291.27,98.41a2.73,2.73,0,0,1-.4,0c1.44-.3,1.6-3.89.75-4a3.83,3.83,0,0,1-1.19-2.3,31.16,31.16,0,0,0,1-7.89c0-5-3.72-5.2-4.14-5.2a1.17,1.17,0,0,1-.83-.34,15.44,15.44,0,0,0-9.27-3.51c-5.33-.29-9.45,1.07-11.92,3.91s-3.27,7.07-2.48,12.38a10.59,10.59,0,0,0,.56,2.94,1.83,1.83,0,0,0-.44,0c-1.08.21-1,3.72.48,4,.18,0-.25,0-.14,0a2.5,2.5,0,0,1,2.6,2c.69,3.75,1.93,6.44,3.59,8.26l0,6.21,7.77,6.8,7.77-6.8v-3h0v-3.25a16.08,16.08,0,0,0,3.64-8.21,2.49,2.49,0,0,1,2.59-2M283.42,127a1.38,1.38,0,0,0,1-.6l5.4-8.11L287.47,116,279,123.36l3.29,3.29A1.36,1.36,0,0,0,283.42,127Zm-4.67,1.47-.09-2.13L277.27,125l-1.38,1.38-.09,2.13ZM275.7,72.75H276c.45,0,.91,0,1.38,0a18.14,18.14,0,0,1,10.47,3.88c1.52.19,6,1.28,6,7.56a33.68,33.68,0,0,1-1,8.08c1.35.6,1.5,2.06,1.5,3.66v1a3.89,3.89,0,0,1-3,3.86c-.33.06.1,0-.24,0,0,0-.07,0-.07.07-.51,2.75-1.79,7.09-3.6,9v3.26a1.19,1.19,0,0,1,.93.35l3.83,3.83,7.49,2.88a8.9,8.9,0,0,1,5.69,8.29h0c0,.12,0,.23,0,.35l-1.06,44.35a1.2,1.2,0,0,1-1.2,1.15h-.05a1.2,1.2,0,0,1-1.15-1.24L303,128.75a6.46,6.46,0,0,0-.3-2.24l-4.36,4.36a6.41,6.41,0,0,0-1.9,4.59l-1.76,37.23a1.2,1.2,0,0,1-2.4,0L294,135.46a8.83,8.83,0,0,1,2.6-6.29l4.85-4.85a6.55,6.55,0,0,0-2.64-1.88l-7-2.72-5.37,8a3.75,3.75,0,0,1-2.76,1.66l-.37,0a3.79,3.79,0,0,1-2.12-.65l1.15,44.3a1.18,1.18,0,0,1-1.14,1.25h-.05a1.2,1.2,0,0,1-1.2-1.14l-1.07-42.3h-3.16l-1.06,42.3a1.2,1.2,0,0,1-1.2,1.14h-.05a1.2,1.2,0,0,1-1.15-1.25l1.15-44.3a3.75,3.75,0,0,1-2.11.65l-.38,0a3.73,3.73,0,0,1-2.75-1.66l-5.37-8-7,2.72a6.45,6.45,0,0,0-2.63,1.88l4.84,4.85a8.84,8.84,0,0,1,2.61,6.29L262.38,173a1.2,1.2,0,1,1-2.39,0l-1.85-37.51a6.45,6.45,0,0,0-1.9-4.59l-4.36-4.36a6.46,6.46,0,0,0-.31,2.24l1.06,44.36a1.18,1.18,0,0,1-1.15,1.24h0a1.19,1.19,0,0,1-1.2-1.15l-1.06-44.35c0-.12,0-.23,0-.35h0a8.89,8.89,0,0,1,5.69-8.29l7.49-2.88,3.83-3.83a1.18,1.18,0,0,1,.93-.35v-3.26c-1.81-1.92-3.1-6.26-3.6-9a.23.23,0,0,0-.07-.07c-.34,0-.18.07-.51,0a3.89,3.89,0,0,1-3-3.85V96c0-1.12,0-2.22.72-2.93-1.23-6.58-.25-11.93,2.84-15.5C266.18,74.41,270.38,72.77,275.7,72.75Zm-5.57,53.69a1.37,1.37,0,0,0,2.1.21l3.29-3.29L267.08,116l-2.36,2.35Z" transform="translate(-1 -1)"/><path class="cls-5" d="M269.5,114.91l0-6.21a11.12,11.12,0,0,0,15.58,0v3.25a14,14,0,0,1-15.54,0Z" transform="translate(-1 -1)"/><path class="cls-3" d="M130.58,176.61l1-49.38,2.53-3c2.14,1.36,3.22,2,3.22,2l1.06,50.38Z" transform="translate(-1 -1)"/><path class="cls-4" d="M134.76,122.74l-10.85-8.39-3.29,3.6q-12.11,4.38-12.43,6.75-.45,17.79-.46,17.79,1,34.19,1,34.19l51.6-.07,1.08-49.15q-1.49-4.47-3.61-5.37l-10.23-4.71-3.19-2.8-9.62,8.16" transform="translate(-1 -1)"/><path class="cls-3" d="M143.85,115.11c-.16-3.68-.23-5.52-.23-5.52l4.45-9.58c2.28-1.28,2.94-3.42,2-6.44a18.91,18.91,0,0,0-.69-11.27q-8-14.11-24.46-4.83l-4.52,1.61q-2.62,4.67-.16,13.8-3.37,3.25,0,7,2.63-.19,2.38,4.06a11.63,11.63,0,0,0,2.76,5.29c-.15,3.94-.23,5.9-.23,5.9l9.34,8.44,9.37-8.44" transform="translate(-1 -1)"/><path class="cls-5" d="M128.27,89.35c5.68,3.1,13.27,2,16,1.4l1,2.52a2.08,2.08,0,0,0,2.41,1.23,4.16,4.16,0,0,1,.66-.09,8.34,8.34,0,0,0,.4-1.62,2.4,2.4,0,0,0,.06-.4c.32-1.53.49-2.3.49-2.3q.42-6.86-2.88-11-5-5-13.79-3.7a16.19,16.19,0,0,0-7.78,3.55c-.3.06-.79.15-1.47.25q-3.81,1.19-3,7.33a16.58,16.58,0,0,0,1.06,5.64l-.13,0a3.78,3.78,0,0,1-1.19,2.3,1.36,1.36,0,0,1,1.34.52,1.69,1.69,0,0,0,.88.61,1.73,1.73,0,0,0,1.51-.24,9.06,9.06,0,0,0,1.12-.93h0a10.15,10.15,0,0,0,1.51-1.86,1,1,0,0,0,.14-.33c.51-.79,1-1.74,1.63-2.84" transform="translate(-1 -1)"/><path class="cls-6" d="M120.48,98.41a2.73,2.73,0,0,0,.4,0c-1.44-.3-1.6-3.89-.75-4a3.78,3.78,0,0,0,1.19-2.3,31.16,31.16,0,0,1-1-7.89c0-5,3.73-5.2,4.14-5.2a1.17,1.17,0,0,0,.83-.34,15.47,15.47,0,0,1,9.27-3.51c5.33-.29,9.46,1.07,11.92,3.91s3.28,7.07,2.48,12.38a10.62,10.62,0,0,1-.55,2.94,1.9,1.9,0,0,1,.44,0c1.07.21,1,3.72-.49,4-.18,0,.26,0,.14,0a2.5,2.5,0,0,0-2.6,2c-.68,3.75-1.92,6.44-3.59,8.26l0,6.21-7.77,6.8-7.77-6.8v-3h0v-3.25a16.16,16.16,0,0,1-3.64-8.21,2.48,2.48,0,0,0-2.59-2M128.34,127a1.34,1.34,0,0,1-1-.6l-5.41-8.11,2.35-2.35,8.45,7.38-3.29,3.29A1.36,1.36,0,0,1,128.34,127Zm4.66,1.47.09-2.13,1.39-1.38,1.38,1.38.1,2.13Zm3.06-55.76h-.27c-.45,0-.91,0-1.38,0A18.06,18.06,0,0,0,124,76.67c-1.53.19-6,1.28-6,7.56a33.79,33.79,0,0,0,1,8.08c-1.35.6-1.5,2.06-1.5,3.66v1a3.89,3.89,0,0,0,3,3.86c.33.06-.09,0,.24,0,0,0,.07,0,.07.07.51,2.75,1.79,7.09,3.6,9v3.26a1.2,1.2,0,0,0-.93.35l-3.82,3.83-7.5,2.88a8.9,8.9,0,0,0-5.68,8.29h0v.35l1.07,44.35a1.18,1.18,0,0,0,1.19,1.15h0a1.19,1.19,0,0,0,1.15-1.24l-1.06-44.36a6.46,6.46,0,0,1,.31-2.24l4.35,4.36a6.42,6.42,0,0,1,1.91,4.59l1.75,37.23a1.2,1.2,0,0,0,2.4,0l-1.76-37.23a8.83,8.83,0,0,0-2.6-6.29l-4.85-4.85a6.55,6.55,0,0,1,2.64-1.88l7-2.72,5.36,8a3.77,3.77,0,0,0,2.76,1.66l.38,0a3.78,3.78,0,0,0,2.11-.65l-1.15,44.3a1.18,1.18,0,0,0,1.14,1.25h.06a1.18,1.18,0,0,0,1.19-1.14l1.07-42.3h3.16l1.07,42.3a1.18,1.18,0,0,0,1.19,1.14h.06a1.19,1.19,0,0,0,1.14-1.25l-1.15-44.3a3.75,3.75,0,0,0,2.11.65l.38,0a3.77,3.77,0,0,0,2.76-1.66l5.36-8,7.05,2.72a6.55,6.55,0,0,1,2.64,1.88l-4.85,4.85a8.83,8.83,0,0,0-2.6,6.29L149.37,173a1.2,1.2,0,1,0,2.4,0l1.84-37.51a6.45,6.45,0,0,1,1.9-4.59l4.36-4.36a6.46,6.46,0,0,1,.31,2.24l-1.06,44.36a1.19,1.19,0,0,0,1.15,1.24h0a1.18,1.18,0,0,0,1.19-1.15l1.07-44.35v-.35h0a8.89,8.89,0,0,0-5.69-8.29l-7.49-2.88-3.82-3.83a1.2,1.2,0,0,0-.93-.35v-3.26c1.8-1.92,3.09-6.26,3.59-9a.19.19,0,0,1,.08-.07c.33,0,.17.07.5,0a3.88,3.88,0,0,0,3-3.85V96c0-1.12,0-2.22-.72-2.93,1.23-6.58.25-11.93-2.83-15.5C145.58,74.41,141.37,72.77,136.06,72.75Zm5.56,53.69a1.37,1.37,0,0,1-2.1.21l-3.29-3.29,8.44-7.38,2.36,2.35Z" transform="translate(-1 -1)"/><path class="cls-5" d="M142.25,114.91l0-6.21a11.12,11.12,0,0,1-15.58,0v3.25a14,14,0,0,0,15.54,0Z" transform="translate(-1 -1)"/><path class="cls-7" d="M204.85,114,192,104l-3.91,4.27q-14.35,5.2-14.74,8-.56,21.12-.55,21.12Q174,178,174,178l61.25-.09q1.28-58.35,1.28-58.34c-1.17-3.54-2.6-5.67-4.28-6.37l-12.15-5.6-3.78-3.32L204.85,114" transform="translate(-1 -1)"/><path class="cls-8" d="M215.64,104.89c-.19-4.36-.28-6.55-.28-6.55L220.64,87q4.06-2.28,2.37-7.65a22.41,22.41,0,0,0-.82-13.38q-9.51-16.75-29-5.73l-5.37,1.91q-3.1,5.54-.18,16.38-4,3.87,0,8.28,3.1-.23,2.82,4.83a13.77,13.77,0,0,0,3.27,6.28l-.27,7,11.09,10,11.12-10" transform="translate(-1 -1)"/><path class="cls-9" d="M208.5,56.91q7.2-.31,7.65,3,7,4.83,5.52,14.94-18.58-.55-28.92-2.54c-1.16,2.74-2.45,4.51-3.85,5.3a36.44,36.44,0,0,1-1.09-6.46h0q-.74-6,1.82-8a6.05,6.05,0,0,1,3.5-1.21q3.75-3.94,15.37-5.05" transform="translate(-1 -1)"/><path class="cls-10" d="M195.39,128.35h-6.08a1.43,1.43,0,0,0,0,2.85h6.08a1.43,1.43,0,0,0,0-2.85" transform="translate(-1 -1)"/><path class="cls-3" d="M199.88,177.89l1.24-58.61,3-3.6,3.82,2.41,1.26,59.8Z" transform="translate(-1 -1)"/><path class="cls-10" d="M187.9,85.06c-.14,0,.62.09.47.06-1.7-.35-1.89-4.61-.89-4.79a4.5,4.5,0,0,0,1.42-2.72,37,37,0,0,1-1.21-9.37c0-5.94,4.42-6.17,4.91-6.18a1.42,1.42,0,0,0,1-.4,18.28,18.28,0,0,1,11-4.17c6.33-.34,11.22,1.27,14.15,4.65s3.89,8.38,2.94,14.69h0c-.09,1.39-1,3.34-.13,3.51,1.27.25,1.15,4.42-.58,4.77-.21,0,.3,0,.16,0a3,3,0,0,0-3.08,2.42c-.81,4.45-2.29,7.64-4.26,9.8l0,7.38-9.22,8.07-9.23-8.07v-3.58h0V97.23c-2-2.19-3.52-5.39-4.32-9.75a3,3,0,0,0-3.08-2.42m9.33,34a1.61,1.61,0,0,1-1.19-.72l-6.42-9.63,2.79-2.79,10,8.76-3.9,3.91A1.66,1.66,0,0,1,197.23,119.06Zm5.53,1.74.11-2.53,1.65-1.64,1.64,1.64.11,2.53Zm3.63-66.2h-.32c-.53,0-1.08,0-1.63,0A21.57,21.57,0,0,0,192,59.26c-1.81.23-7.17,1.53-7.17,9A40.35,40.35,0,0,0,186,77.83c-1.6.71-1.78,2.44-1.78,4.34v1.17a4.61,4.61,0,0,0,3.57,4.57c.4.08-.11,0,.29,0a.2.2,0,0,1,.09.09c.6,3.26,2.12,8.42,4.27,10.69v3.87a1.43,1.43,0,0,0-1.11.41l-4.54,4.55-8.89,3.43a10.54,10.54,0,0,0-6.75,9.83h0c0,.14,0,.28,0,.42l1.26,52.65a1.42,1.42,0,0,0,1.42,1.36h.05a1.42,1.42,0,0,0,1.37-1.47L174,121.09a7.64,7.64,0,0,1,.36-2.67l5.18,5.17A7.68,7.68,0,0,1,181.8,129l2.09,44.19a1.42,1.42,0,1,0,2.84,0L184.65,129a10.48,10.48,0,0,0-3.09-7.46l-5.75-5.75a7.61,7.61,0,0,1,3.12-2.24l8.37-3.22,6.37,9.55a4.45,4.45,0,0,0,3.28,2l.44,0a4.41,4.41,0,0,0,2.51-.78l-1.37,52.6a1.42,1.42,0,0,0,1.36,1.48H200a1.43,1.43,0,0,0,1.42-1.36l1.26-50.21h3.75l1.27,50.21a1.41,1.41,0,0,0,1.42,1.36h.06a1.41,1.41,0,0,0,1.36-1.48l-1.37-52.6a4.41,4.41,0,0,0,2.51.78l.45,0a4.43,4.43,0,0,0,3.27-2l6.37-9.55,8.37,3.22a7.71,7.71,0,0,1,3.13,2.24l-5.76,5.75a10.48,10.48,0,0,0-3.09,7.46l-2.19,44.53a1.43,1.43,0,0,0,2.85,0L227.23,129a7.65,7.65,0,0,1,2.26-5.45l5.17-5.17a7.64,7.64,0,0,1,.36,2.67l-1.26,52.64a1.42,1.42,0,0,0,1.37,1.48h.06a1.42,1.42,0,0,0,1.42-1.36l1.26-52.65v-.43a10.54,10.54,0,0,0-6.75-9.83l-8.89-3.43L217.69,103a1.42,1.42,0,0,0-1.11-.41V98.68c2.15-2.27,3.68-7.43,4.27-10.69a.2.2,0,0,1,.09-.09c.4,0,.21.08.6,0a4.6,4.6,0,0,0,3.57-4.57V82.14c0-1.33,0-2.62-.86-3.47,1.47-7.81.31-14.16-3.36-18.39C217.69,56.58,212.7,54.64,206.39,54.6Zm6.6,63.74a1.61,1.61,0,0,1-1.18.72,1.67,1.67,0,0,1-1.31-.47l-3.9-3.91,10-8.76,2.79,2.79Z" transform="translate(-1 -1)"/><path class="cls-11" d="M213.74,104.66l0-7.38a13.21,13.21,0,0,1-18.49,0v3.85a16.65,16.65,0,0,0,18.45,0Z" transform="translate(-1 -1)"/><path class="cls-12" d="M222,71.69c1,4.42.93,7.34-.18,8.78-3.21-1.85.29-4.85.18-8.78" transform="translate(-1 -1)"/><g class="cls-13"><g class="cls-14"><path class="cls-15" d="M388.8,274.19l1.54-2.91,2.3-4.31,4.17,7.22h-8Zm-369.46,0L23.18,267l2.49,4.32,1.68,2.9h-8Zm4.11,0v22.18H392.78V274.19" transform="translate(-1 -1)"/></g></g><path class="cls-16" d="M383.87,222.2a2.13,2.13,0,0,1,2-1.44h.9m.71.18h0m0,0h0m0,.08h0m0,0h0m-.06.34h0M23.85,217.54h0l-4.19.68,0-.11,0-.12,0-.12,0-.12,0-.13,0-.12,0-.12v-.12l0-.12,0-.12,0-.13,0-.12,0-.13,0-.12,0-.12v-.11l0-.13,0-.13,0-.12,0-.12,0-.12v-.12l0-.13,0-.12,0-.12,0-.13v-.12l0-.12,0-.12v-.12l0-.12,0-.13,0-.12v-.13l0-.12v0m16.64-6.42a2.13,2.13,0,0,1,2.08,3.71L34,213.28h0a2.13,2.13,0,0,1-2.08-3.71h0l3.71-2.08Zm14.83-8.33a2.13,2.13,0,0,1,2.08,3.71L48.85,205h0a2.12,2.12,0,0,1-2.08-3.7h0l3.71-2.08Zm14.83-8.32a2.12,2.12,0,1,1,2.08,3.7l-3.7,2.08h0a2.12,2.12,0,0,1-2.08-3.7h0l3.71-2.08Zm14.83-8.33a2.12,2.12,0,1,1,2.08,3.7h0l-1,.56-2.69,1.51h0a2.13,2.13,0,0,1-2.08-3.71h0l3.71-2.08Zm34.1-8.12h0a2.13,2.13,0,1,1,0,4.25H110a2.13,2.13,0,1,1,0-4.25h4.24Zm17,0h0a2.13,2.13,0,1,1,0,4.25H127a2.13,2.13,0,1,1,0-4.25h4.24Zm17,0h0a2.13,2.13,0,0,1,0,4.25H144a2.13,2.13,0,1,1,0-4.25h4.24Zm17,0h0a2.13,2.13,0,0,1,0,4.25H161a2.13,2.13,0,0,1,0-4.25h4.25Zm17,0h0a2.13,2.13,0,1,1,0,4.25H178a2.13,2.13,0,0,1,0-4.25h4.25Zm17,0h0a2.13,2.13,0,1,1,0,4.25H195a2.13,2.13,0,1,1,0-4.25h4.24Zm17,0h0a2.13,2.13,0,1,1,0,4.25H212a2.13,2.13,0,1,1,0-4.25h4.24Zm17,0h0a2.13,2.13,0,0,1,0,4.25h-4.25a2.13,2.13,0,1,1,0-4.25h4.24Zm17,0h0a2.13,2.13,0,0,1,0,4.25h-4.26a2.13,2.13,0,0,1,0-4.25h4.25Zm17,0h0a2.13,2.13,0,1,1,0,4.25h-4.25a2.13,2.13,0,0,1,0-4.25h4.25Zm17,0h0a2.13,2.13,0,1,1,0,4.25h-4.25a2.13,2.13,0,1,1,0-4.25h4.24Zm17,0h0a2.13,2.13,0,1,1,0,4.25h-4.25a2.13,2.13,0,1,1,0-4.25h4.24Zm88.15,42.9h0m3.2-1.59-.56.28a2.12,2.12,0,0,1,.3,1.43m-4.18-.77a2.19,2.19,0,0,1,.27-.67,2.13,2.13,0,0,1,3.06-2.38h0l1.32.7M35,222.2H26.71a2.11,2.11,0,0,1,2-1.44h9.17a2.13,2.13,0,0,1-2,1.44H35Zm17,0H43.71a2.13,2.13,0,0,1,2-1.44H54.9a2.13,2.13,0,0,1-2,1.44H52Zm17,0H60.72a2.13,2.13,0,0,1,2-1.44H71.9a2.12,2.12,0,0,1-2,1.44H69Zm17,0H77.73a2.12,2.12,0,0,1,2-1.44h9.17a2.12,2.12,0,0,1-2,1.44H86Zm17,0H94.74a2.12,2.12,0,0,1,2-1.44h9.17a2.13,2.13,0,0,1-2,1.44H103Zm17,0h-8.28a2.13,2.13,0,0,1,2-1.44h9.17a2.13,2.13,0,0,1-2,1.44H120Zm17,0h-8.28a2.13,2.13,0,0,1,2-1.44h9.17a2.13,2.13,0,0,1-2,1.44H137Zm17,0h-8.28a2.13,2.13,0,0,1,2-1.44h9.17a2.12,2.12,0,0,1-2,1.44H154Zm17,0h-8.28a2.12,2.12,0,0,1,2-1.44H174a2.12,2.12,0,0,1-2,1.44h-.89Zm17,0h-8.27a2.11,2.11,0,0,1,2-1.44H191a2.13,2.13,0,0,1-2,1.44h-.9Zm17,0h-8.28a2.13,2.13,0,0,1,2-1.44H208a2.13,2.13,0,0,1-2,1.44h-.89Zm17,0h-8.28a2.13,2.13,0,0,1,2-1.44H225a2.11,2.11,0,0,1-2,1.44h-.89Zm17,0H230.8a2.13,2.13,0,0,1,2-1.44H242a2.12,2.12,0,0,1-2,1.44h-.89Zm17,0h-8.28a2.12,2.12,0,0,1,2-1.44H259a2.13,2.13,0,0,1-2,1.44h-.89Zm17,0h-8.27a2.11,2.11,0,0,1,2-1.44H276a2.13,2.13,0,0,1-2,1.44h-.9Zm17,0h-8.28a2.13,2.13,0,0,1,2-1.44H293a2.13,2.13,0,0,1-2,1.44h-.89Zm17,0h-8.28a2.13,2.13,0,0,1,2-1.44H310a2.12,2.12,0,0,1-2,1.44h-.89Zm17,0h-8.28a2.12,2.12,0,0,1,2-1.44H327a2.12,2.12,0,0,1-2,1.44h-.89Zm17,0h-8.27a2.12,2.12,0,0,1,2-1.44H344a2.13,2.13,0,0,1-2,1.44h-.9Zm17,0h-8.28a2.13,2.13,0,0,1,2-1.44H361a2.13,2.13,0,0,1-2,1.44h-.89Zm17,0h-8.28a2.13,2.13,0,0,1,2-1.44h9.17a2.13,2.13,0,0,1-2,1.44h-.89ZM190.8,1.81c1.56-.15,3.13-.27,4.71-.38a2.13,2.13,0,0,1,.05,4.25h0l-.32,0-1.16.08-1.16.1L191.76,6l-.32,0h0a2.13,2.13,0,0,1-.63-4.2ZM174,4.12c1.53-.28,3.06-.54,4.6-.79a2.13,2.13,0,0,1,.48,4.22l-1,.16L177,7.9l-1.13.2-.86.16h0a2.13,2.13,0,0,1-1-4.14ZM157.5,8q2.16-.62,4.35-1.17a2.13,2.13,0,0,1,.94,4.15h0l-.26.06-1.1.29-1.08.29-1.09.3-.48.13h0a2.12,2.12,0,0,1-1.28-4Zm-16.23,5.39c1.47-.56,2.94-1.11,4.43-1.63a2.12,2.12,0,0,1,1.2,4.07h0l-.45.16-1,.38-1.05.39-1,.39-.3.11h0a2.12,2.12,0,0,1-1.74-3.87ZM125.7,20.15c1.4-.69,2.82-1.37,4.24-2a2.13,2.13,0,0,1,1.59,3.94h0l-.49.23-1,.47-1,.48-1,.48-.26.13h0a2.13,2.13,0,0,1-2.08-3.7ZM110.88,28.3q1.94-1.18,3.89-2.32a2.13,2.13,0,0,1,2,3.75h0l-.42.24-1,.56-.94.56-1,.57-.31.19h0a2.13,2.13,0,0,1-2.34-3.55ZM96.8,37.82q1.82-1.35,3.66-2.66a2.13,2.13,0,0,1,2.34,3.55h0l-.28.19-.89.64-.89.65-.88.64-.41.31h0a2.12,2.12,0,0,1-2.64-3.32ZM83.58,48.63q1.74-1.56,3.52-3.08a2.13,2.13,0,0,1,2.59,3.37h0l-.12.1-.83.71-.82.72-.82.73-.53.47h0a2.13,2.13,0,0,1-3-3ZM71.43,60.56c1.07-1.15,2.16-2.3,3.27-3.42a2.12,2.12,0,0,1,2.87,3.12h0l-.74.76-.75.79-.76.79-.63.68h0a2.13,2.13,0,0,1-3.26-2.72Zm-11,12.94q1.43-1.84,2.91-3.66a2.12,2.12,0,0,1,3.16,2.83h0l-.54.66-.68.86-.68.86-.67.86h0a2.13,2.13,0,0,1-3.49-2.42ZM50.7,87.31q1.2-1.89,2.46-3.74A2.12,2.12,0,0,1,56.62,86h0l-.38.56-.6.91-.6.92-.6.93-.09.14a2.13,2.13,0,0,1-3.65-2.18Zm-8.51,14.78q1.05-2,2.15-4A2.13,2.13,0,0,1,48,100.22h0l-.27.49-.52,1-.52,1-.51,1-.13.24h0a2.12,2.12,0,0,1-3.85-1.79ZM35.06,117.6q.88-2.19,1.83-4.35a2.13,2.13,0,0,1,3.8,1.9h0l-.22.49-.43,1-.43,1-.42,1-.11.26a2.13,2.13,0,0,1-4-1.37Zm-5.65,16c.45-1.51.92-3,1.41-4.49a2.13,2.13,0,0,1,4,1.53h0l-.2.61-.35,1.07-.33,1.07-.33,1.07,0,.13h0a2.13,2.13,0,0,1-4.13-1ZM25.27,150q.43-2.16.93-4.29a2.13,2.13,0,0,1,4.13,1h0l-.2.9-.25,1.1-.24,1.11-.2,1h0a2.12,2.12,0,0,1-4.17-.79Zm-2.66,17c.17-1.56.36-3.13.58-4.68a2.13,2.13,0,0,1,4.17.8h0l0,.24-.15,1.14L27,165.57l-.13,1.14,0,.43h0a2.13,2.13,0,0,1-4.24-.23ZM21.5,183.85c0-1.56.09-3.12.15-4.67a2.13,2.13,0,0,1,4.23.38h0l0,1.05,0,1.17,0,1.17,0,.78h0a2.13,2.13,0,0,1-4.25.12Zm.4,16.8c-.09-1.41-.18-2.83-.24-4.25a2.12,2.12,0,0,1,4.24-.2h0v4.14h0a2.13,2.13,0,0,1-4.25.3Zm6.11,16-3.6,2a2.09,2.09,0,0,1-.56-1.13c-.23-1.4-.44-2.8-.63-4.21a2.12,2.12,0,0,1,4.21-.58h0v0l0,.12,0,.11v.12l0,.11,0,.12v.12l0,.12,0,.12v.12l0,.11,0,.12v.12l0,.11,0,.12v.12l0,.12,0,.11,0,.11V215l0,.12,0,.12,0,.12,0,.11v.12l0,.11,0,.12,0,.12,0,.11v.12l0,.12,0,.11,0,.12,0,.12Zm67.68-38L92,180.72a4.68,4.68,0,0,1-.27-.55,2.13,2.13,0,0,1-.47-3.91h0l2.31-1.3a4.29,4.29,0,0,1,2.13-.57h1.55a2.13,2.13,0,0,1,0,4.25H95.69Zm220.13,0h-4.25a4.27,4.27,0,0,1,.41-1.83,2.64,2.64,0,0,1,0-.29,2.13,2.13,0,0,1,2.13-2.13h1.66a4.15,4.15,0,0,1,2,.49l2.23,1.17a2.13,2.13,0,0,1-2,3.77h0Zm17.32,9.09-3.82-2a2.13,2.13,0,0,1,2-3.75h0l3.76,2a2.12,2.12,0,0,1-1.94,3.78Zm15.06,7.91-3.84-2a2.13,2.13,0,0,1,2-3.74h0l3.76,2a2.12,2.12,0,0,1-1.94,3.78Zm15.05,7.9-3.82-2a2.13,2.13,0,0,1,2-3.75h0l3.76,2a2.13,2.13,0,0,1-1.95,3.78Zm15.05,7.9-3.8-2a2.13,2.13,0,0,1,2-3.75h0l3.76,2a2.13,2.13,0,0,1-2,3.78Zm16-10.92c-.1,1.43-.21,2.85-.34,4.27a2.13,2.13,0,0,1-4.24-.39h0v-4.14h0a2.13,2.13,0,0,1,4.25.27Zm.38-17.12q.06,2.13.06,4.26v.15a2.13,2.13,0,0,1-4.25,0h0V185.3l0-1.17v-.47h0a2.13,2.13,0,0,1,4.24-.26Zm-1.16-17.06c.18,1.57.34,3.15.48,4.73a2.13,2.13,0,0,1-4.25.15l-.09-1.06-.12-1.15-.12-1.15-.08-.79h0a2.12,2.12,0,0,1,4.18-.73Zm-2.65-16.66c.3,1.47.59,2.95.86,4.43a2.13,2.13,0,0,1-4.21.63h0l-.09-.49-.21-1.12L387,152l-.22-1.11-.05-.23a2.13,2.13,0,0,1,4.14-1Zm-4.24-16.55c.46,1.48.89,3,1.31,4.48a2.13,2.13,0,0,1-4.14.95h0l-.23-.84-.31-1.08-.32-1.08-.3-1h0a2.12,2.12,0,0,1,4-1.42Zm-5.71-16q.89,2.19,1.74,4.41a2.13,2.13,0,0,1-4.05,1.29l-.37-1-.41-1-.41-1-.34-.84h0a2.13,2.13,0,0,1,3.84-1.82Zm-7.13-15.4q1.07,2.07,2.1,4.16a2.14,2.14,0,0,1-1,2.66,2.12,2.12,0,0,1-2.85-1h0l-.47-.94-.5-1-.5-1-.41-.8h0a2.13,2.13,0,0,1,3.67-2.14ZM365.4,87.11c.79,1.21,1.55,2.44,2.3,3.68A2.13,2.13,0,0,1,364.05,93l-.5-.83-.58-.93-.59-.94-.54-.84h0a2.13,2.13,0,0,1,.65-2.94A2.11,2.11,0,0,1,365.4,87.11Zm-9.9-14q1.42,1.83,2.8,3.69a2.13,2.13,0,0,1-3.52,2.38l-.49-.65-.66-.88-.66-.87-.67-.87,0,0a2.13,2.13,0,0,1,3.23-2.77Zm-11.07-13q1.6,1.71,3.17,3.47a2.13,2.13,0,0,1-3.31,2.66h0l-.42-.46-.73-.82-.74-.8-.74-.81-.17-.18h0a2.12,2.12,0,0,1,2.94-3.06ZM332.26,48.28q1.75,1.56,3.47,3.17a2.13,2.13,0,0,1-3.06,2.95h0l-.3-.28-.8-.74-.81-.74L330,51.9l-.33-.3h0a2.13,2.13,0,0,1,2.65-3.32Zm-13.15-10.7q1.84,1.37,3.66,2.78A2.13,2.13,0,0,1,320,43.61h0l-.16-.13-.87-.67-.87-.66-.88-.66-.52-.39a2.13,2.13,0,0,1,2.38-3.52Zm-14-9.45q1.88,1.15,3.73,2.34A2.13,2.13,0,0,1,306.46,34h0l0,0-.93-.59-.93-.59-.93-.58-.69-.42a2.13,2.13,0,0,1,2.14-3.68Zm-15-8.22q2.12,1,4.18,2.12a2.12,2.12,0,0,1-2.13,3.67h0l-.95-.5-1-.5-1-.49-.8-.4h0a2.13,2.13,0,0,1,1.68-3.9Zm-15.63-6.77q2.22.84,4.42,1.74A2.13,2.13,0,0,1,277,18.72h0l-1-.4-1-.41-1-.4-.81-.32h0a2.12,2.12,0,0,1,1.28-4Zm-16.09-5.3c1.48.42,3,.85,4.44,1.3a2.12,2.12,0,0,1-1.42,4h0l-.06,0-1.08-.32-1.07-.32-1.08-.31-.68-.19a2.13,2.13,0,0,1,1-4.14ZM241.79,4c1.5.27,3,.56,4.48.87a2.13,2.13,0,0,1-1,4.13h0L244.88,9l-1.11-.23-1.12-.21-1.12-.22-.33-.06a2.12,2.12,0,0,1,.59-4.2ZM224.85,1.76q2.39.21,4.74.48a2.12,2.12,0,0,1-.71,4.18h0l-1-.11-1.15-.12-1.15-.11L224.73,6h0a2.12,2.12,0,0,1,.12-4.24Zm-12.34-.7a2.12,2.12,0,0,1-.22,4.24h-.64l-1.18,0H208A2.13,2.13,0,0,1,208,1h.17C209.58,1,211.05,1,212.51,1.06Z" transform="translate(-1 -1)"/><path class="cls-17" d="M104.06,174.39h0a2.13,2.13,0,1,1,0,4.25H99.82a2.13,2.13,0,1,1,0-4.25h4.24Zm17,0h0a2.13,2.13,0,1,1,0,4.25h-4.25a2.13,2.13,0,1,1,0-4.25h4.24Zm17,0h0a2.13,2.13,0,0,1,0,4.25h-4.25a2.13,2.13,0,1,1,0-4.25h4.24Zm17,0h0a2.13,2.13,0,0,1,0,4.25h-4.26a2.13,2.13,0,0,1,0-4.25h4.25Zm17,0h0a2.13,2.13,0,1,1,0,4.25h-4.25a2.13,2.13,0,0,1,0-4.25h4.25Zm17,0h0a2.13,2.13,0,1,1,0,4.25h-4.25a2.13,2.13,0,1,1,0-4.25h4.24Zm17,0h0a2.13,2.13,0,1,1,0,4.25h-4.25a2.13,2.13,0,1,1,0-4.25h4.24Zm17,0h0a2.13,2.13,0,0,1,0,4.25h-4.25a2.13,2.13,0,1,1,0-4.25h4.24Zm17,0h0a2.13,2.13,0,0,1,0,4.25h-4.26a2.13,2.13,0,0,1,0-4.25h4.25Zm17,0h0a2.13,2.13,0,1,1,0,4.25h-4.25a2.13,2.13,0,0,1,0-4.25h4.25Zm17,0h0a2.13,2.13,0,1,1,0,4.25H269.9a2.13,2.13,0,1,1,0-4.25h4.24Zm17,0h0a2.13,2.13,0,1,1,0,4.25h-4.25a2.13,2.13,0,1,1,0-4.25h4.24Zm17,0h0a2.13,2.13,0,0,1,0,4.25h-4.25a2.13,2.13,0,1,1,0-4.25h4.24ZM195.85,37.28c1.48-.12,3-.22,4.45-.3a2.13,2.13,0,0,1,.18,4.25l-.85.05-.93,0-.94.06-.93.07-.48,0h0a2.13,2.13,0,0,1-.5-4.22ZM179,39.61c1.52-.3,3.05-.58,4.59-.83A2.13,2.13,0,0,1,184,43H184l-.9.16-.9.15-.91.17-.9.17-.36.07h0a2.12,2.12,0,0,1-1-4.12ZM162.52,43.8c1.42-.45,2.83-.88,4.26-1.29a2.13,2.13,0,0,1,1.16,4.1l-.84.24-.86.25-.87.26-.86.27-.53.16h0a2.13,2.13,0,0,1-1.45-4Zm-15.87,6c1.4-.63,2.82-1.23,4.25-1.82a2.13,2.13,0,0,1,1.43,4h0l-.46.19-.83.34-.82.35-.82.36-.81.36-.05,0a2.12,2.12,0,0,1-1.89-3.8ZM131.5,57.67q2-1.19,4-2.31a2.13,2.13,0,0,1,1.91,3.8h0l-.76.42-.78.44-.77.44-.76.44-.53.31h0a2.12,2.12,0,0,1-2.34-3.54Zm-14.07,9.4q1.8-1.35,3.64-2.66A2.13,2.13,0,0,1,123.43,68l-.19.13-.72.52-.71.51-.71.53-.71.52-.29.22h0a2.13,2.13,0,0,1-2.67-3.31Zm-13,11c1.12-1.06,2.25-2.09,3.4-3.11a2.12,2.12,0,0,1,2.67,3.3h0l-.33.29-.65.59-.65.6-.65.6-.64.6-.12.11h0a2.13,2.13,0,0,1-3-3ZM92.73,90.46c1-1.18,2-2.36,3-3.51a2.13,2.13,0,0,1,3,3h0l-.43.47-.58.66-.58.67-.57.66L96.1,93h0a2.12,2.12,0,0,1-3.37-2.58ZM82.53,104q1.25-1.86,2.53-3.68a2.13,2.13,0,0,1,3.46,2.47h0l-.48.68-.51.73L87,105l-.49.73-.37.55h0A2.13,2.13,0,0,1,82.53,104Zm-8.6,14.6c.7-1.36,1.43-2.71,2.17-4a2.12,2.12,0,0,1,3.61,2.23h0l-.1.19-.43.77-.42.78-.41.79-.42.78-.16.33h0a2.13,2.13,0,0,1-3.84-1.83Zm-7,15.62q.83-2.19,1.72-4.34a2.12,2.12,0,0,1,3.85,1.78h0l-.23.56-.33.83-.33.83-.33.83-.31.81h0a2.12,2.12,0,0,1-4-1.3Zm-5.09,16.11c.37-1.46.76-2.9,1.17-4.34a2.13,2.13,0,0,1,4.06,1.28h0l-.07.23-.24.87-.24.87-.24.88-.23.87-.06.26a2.13,2.13,0,0,1-4.15-.92Zm-3.26,16.77c.22-1.55.45-3.09.71-4.63a2.12,2.12,0,0,1,4.14.92h0v.1l-.15.91-.14.91-.14.91-.13.91,0,.33a2.13,2.13,0,0,1-4.24-.36Zm-1.35,16.82c0-1.5.1-3,.18-4.47a2.12,2.12,0,0,1,4.23.36h0v.28l0,.94,0,.94,0,.94,0,.94v.07h0a2.13,2.13,0,0,1-4.25,0Zm4.55,13.72-4.1,2.3c-.12-1.47-.21-2.94-.29-4.42l.27,0a2.12,2.12,0,0,1,4,.8h0v1.29Zm11.51-6.47-.82.46-2.88,1.62h0a2.13,2.13,0,0,1-2.08-3.71h0l3.71-2.08h0a2.12,2.12,0,1,1,2.08,3.7Zm14.83-8.32L84.46,185a2.13,2.13,0,0,1-2.08-3.71h0l3.71-2.08h0a2.13,2.13,0,0,1,2.08,3.71Zm235.94.13-3.78-2a2.12,2.12,0,0,1,2-3.76h0l3.77,2a2.13,2.13,0,0,1-2,3.77Zm15.07,7.9-3.81-2a2.13,2.13,0,0,1,2-3.75h0l3.77,2a2.12,2.12,0,0,1-2,3.77Zm15.06,7.91-3.8-2a2.12,2.12,0,0,1,2-3.75h0l3.77,2a2.13,2.13,0,0,1-2,3.78ZM359,188.72c0,1.43,0,2.86-.09,4.27a2.13,2.13,0,0,1-4.25-.15h0v-4.13a2.13,2.13,0,0,1,4.25,0Zm-.84-17.11c.15,1.46.29,2.93.4,4.41a2.12,2.12,0,0,1-1.94,2.27,2.14,2.14,0,0,1-2.3-1.95h0l-.07-.89-.08-.93-.08-.93-.09-.93-.05-.45h0a2.13,2.13,0,0,1,4.21-.6Zm-2.76-16.82c.34,1.52.65,3,.94,4.57a2.12,2.12,0,0,1-4.2.58v0L352,159l-.19-.89-.18-.9-.19-.89-.09-.41h0a2.12,2.12,0,0,1,4.09-1.12Zm-4.61-16.34q.74,2.12,1.41,4.26a2.13,2.13,0,0,1-4.07,1.23l-.24-.74-.27-.86-.28-.85-.29-.86-.21-.62h0a2.11,2.11,0,0,1,1.31-2.7A2.13,2.13,0,0,1,350.78,138.45Zm-6.43-15.69c.66,1.38,1.3,2.78,1.92,4.18a2.13,2.13,0,0,1-4,1.53l-.15-.34-.37-.81-.37-.81-.37-.81-.38-.8-.08-.18h0a2.12,2.12,0,0,1,3.76-2Zm-8.22-15q1.25,2,2.41,4a2.12,2.12,0,0,1-3.75,2h0l-.36-.62-.45-.76-.46-.76-.46-.75-.41-.66h0a2.13,2.13,0,0,1,3.48-2.43ZM326.36,94c.93,1.17,1.85,2.35,2.74,3.55a2.13,2.13,0,0,1-3.45,2.49h0l0-.06-.53-.7-.54-.7-.54-.7-.54-.69-.33-.42h0A2.13,2.13,0,0,1,326.36,94ZM315.1,81.27c1.07,1.08,2.13,2.19,3.17,3.3A2.13,2.13,0,0,1,315,87.33h0l-.18-.18-.6-.64-.61-.64-.62-.63-.61-.63-.24-.24h0a2.13,2.13,0,0,1,2.92-3.09Zm-12.71-11.4c1.21,1,2.4,1.95,3.58,3a2.12,2.12,0,0,1-2.89,3.11h0l-.35-.3-.67-.56-.68-.57L300.7,74,300,73.4l-.12-.09h0a2.13,2.13,0,0,1,2.49-3.44ZM288.55,60c1.28.81,2.55,1.62,3.8,2.47A2.13,2.13,0,0,1,289.92,66h0l-.56-.38-.73-.49-.74-.48-.75-.48-.69-.44h0a2.13,2.13,0,0,1,2.1-3.69Zm-14.77-8.21c1.37.66,2.72,1.35,4.07,2.05a2.13,2.13,0,0,1-2.14,3.67h0l-.06,0-.78-.41-.8-.4-.79-.4-.8-.39-.46-.22h0a2.13,2.13,0,0,1,1.76-3.87ZM258,45.23c1.47.51,2.93,1.05,4.38,1.61a2.13,2.13,0,0,1-1.7,3.89h0l-.45-.17-.84-.32-.84-.31-.84-.31-.85-.3h0A2.13,2.13,0,0,1,258,45.23Zm-16.26-4.69c1.46.34,2.92.69,4.37,1.06a2.13,2.13,0,0,1-1.17,4.09h0l-.16,0-.88-.22-.88-.22-.88-.21-.89-.21-.31-.07h0a2.13,2.13,0,0,1,.8-4.18Zm-16.84-2.83c1.56.18,3.11.37,4.65.59a2.13,2.13,0,0,1-.81,4.17h-.09l-.92-.13-.91-.12-.92-.11L225,42l-.33,0h0a2.13,2.13,0,0,1,.25-4.24ZM208.12,41a2.13,2.13,0,0,1-.06-4.25h.06c1.47,0,2.94,0,4.4.07a2.13,2.13,0,0,1-.26,4.24h-.36l-.94,0h-2.84Z" transform="translate(-1 -1)"/><polygon class="cls-18" points="14.21 221.2 92.96 175.34 315.48 175.34 398.81 221.2 14.21 221.2"/><g class="cls-13"><g class="cls-19"><polygon class="cls-18" points="10.7 238.73 41.45 221.2 370.99 221.2 403.54 238.73 10.7 238.73"/></g></g><g class="cls-20"><g class="cls-21"><polygon class="cls-18" points="10.7 254.92 39.09 238.73 373.5 238.73 403.54 254.92 10.7 254.92"/></g></g><path class="cls-17" d="M281.48,188.87c16.61,0,30.07,4.61,30.07,10.29s-13.46,10.29-30.07,10.29-30.07-4.61-30.07-10.29,13.46-10.29,30.07-10.29" transform="translate(-1 -1)"/><rect class="cls-22" x="105.1" y="184.83" width="124.93" height="4.5"/><rect class="cls-22" x="90.18" y="194.58" width="124.93" height="4.5"/><rect class="cls-22" x="72.48" y="204.33" width="124.93" height="4.5"/><circle class="cls-23" cx="24.1" cy="163.71" r="5.13"/><circle class="cls-15" cx="24.1" cy="163.71" r="5.13"/><circle class="cls-24" cx="242.13" cy="42.21" r="5.13"/><circle class="cls-25" cx="242.13" cy="42.21" r="5.13"/><circle class="cls-24" cx="354.02" cy="157.84" r="5.13" transform="translate(71.72 423.51) rotate(-67.5)"/><circle class="cls-25" cx="354.02" cy="157.84" r="5.13" transform="translate(71.72 423.51) rotate(-67.5)"/><rect class="cls-26" x="185.81" y="278.12" width="42.62" height="42.65" rx="9.78" ry="9.78"/><rect class="cls-15" x="185.81" y="278.12" width="42.62" height="42.65" rx="9.78" ry="9.78"/><rect class="cls-27" x="185.81" y="271.89" width="42.62" height="42.65" rx="9.78" ry="9.78"/><rect class="cls-15" x="185.81" y="271.89" width="42.62" height="42.65" rx="9.78" ry="9.78"/><g class="cls-28"><g class="cls-29"><path class="cls-12" d="M208.12,290.34a9.41,9.41,0,1,1-9.41,9.41A9.4,9.4,0,0,1,208.12,290.34Z" transform="translate(-1 -1)"/><path class="cls-30" d="M208.12,290.34a9.41,9.41,0,1,1-9.41,9.41A9.4,9.4,0,0,1,208.12,290.34Z" transform="translate(-1 -1)"/></g></g><path class="cls-10" d="M211.7,288.15h-1.76l-11.5-15.06h1.75Zm-3.58,1.72a10,10,0,0,0-4.08.88v-1.68h8.15v1.68A9.88,9.88,0,0,0,208.12,289.87ZM202.51,288l.61.78v2.46l-.61.4ZM217,299.72a8.93,8.93,0,1,1-8.92-8.93A8.94,8.94,0,0,1,217,299.72Zm-3.93-8.49v-2.67h0a.11.11,0,0,1,0-.05v0a.43.43,0,0,1,0-.05h0l0-.06h0l0-.05h0l-.62-.79h1a.29.29,0,0,1,.3.3v3.79Zm.5-4.6-.19,0h-1.55l10.26-13.35c-.33-.07-.67-.14-1-.19L211.18,286l-1-1.29,9-11.8h-1.16L209.58,284l-.88-1.12,7.59-9.94h-1.16l-7,9.19-6.93-9.19h-3.44a11.48,11.48,0,0,0-3.61.31l7,9.34a.46.46,0,1,0,.73-.57l-6.67-8.88h2l11.51,15.06h-2l-3.47-4.42a.46.46,0,0,0-.64-.08h0a.46.46,0,0,0-.08.65l3,3.85h-1.76l-11.06-14.48c-.3.13-.58.27-.86.42l9.94,13a1.16,1.16,0,0,0-.24.72v4.51a9.85,9.85,0,1,0,13.06,0v-4.51a1.2,1.2,0,0,0-.24-.72l10-13c-.28-.14-.57-.28-.87-.4Z" transform="translate(-1 -1)"/><path class="cls-10" d="M214.68,299.72a6.57,6.57,0,1,1-1.8-4.52.47.47,0,0,0,.63,0,.47.47,0,0,0,0-.67,7.48,7.48,0,1,0,2.06,5.15,7.58,7.58,0,0,0-.74-3.25.47.47,0,0,0-.65-.2h0a.47.47,0,0,0-.19.6,6.5,6.5,0,0,1,.65,2.85" transform="translate(-1 -1)"/><path class="cls-10" d="M207.68,296.62l-.48.59a.41.41,0,0,1-.29.14.55.55,0,0,1-.49-.58.72.72,0,0,1,.28-.56l1.41-1.35a.47.47,0,0,1,.37-.15c.29,0,.63.18.63.47v9c0,.31-.36.47-.72.47s-.71-.16-.71-.47Z" transform="translate(-1 -1)"/></g></g></g></g></svg>